<?xml version="1.0" encoding="UTF-8"?>
<svg id="Layer_2_copy_6" xmlns="http://www.w3.org/2000/svg" version="1.1" viewBox="0 0 1179.512 271.064">
  <!-- Generator: Adobe Illustrator 30.2.1, SVG Export Plug-In . SVG Version: 2.1.1 Build 1)  -->
  <defs>
    <style>
      .st0 {
        fill: #fff;
      }

      .st1 {
        fill: #ffbc00;
      }
    </style>
  </defs>
  <g>
    <path class="st1" d="M315.797,135.963c0,56.61-40.45,103.76-94.02,114.13-7.2,1.41-14.64,2.14-22.25,2.14-13.47,0-26.41-2.29-38.44-6.51-18.98-6.64-35.7-18.06-48.72-32.82-6.53-7.37-12.12-15.57-16.61-24.43-8-15.77-12.5-33.62-12.5-52.51,0-64.21,52.06-116.27,116.27-116.27s116.27,52.06,116.27,116.27Z"/>
    <path d="M261.587,141.693c-9.76,20.75-25.32,39.43-60.4,54.58-5.81,5.6-8.5,14.13-7.88,19.31.62,5.19,3.32,23.87,3.32,23.87,0,0,21.47,4.99,25.15,10.64-7.2,1.41-14.64,2.14-22.25,2.14-13.47,0-26.41-2.29-38.44-6.51,3.81-3.02,13.38-5.01,24.34-6.06-.21-3.32-1.46-8.51-1.46-8.51,0,0-13.69-12.25-8.71-15.77,4.98-3.53,8.29-8.94,8.29-13.09-11.08,1.21-40.51,6.76-71.18,10.61-6.08.76-12.22,1.46-18.27,2.05-37.35,10.79-68.28,21.17-73.78,20.55,28.3-17.6,53.5-33.29,75.44-47.03,53.37-33.44,87.42-55.34,99.62-65.05,17.23-13.69,13.08-31.33-.62-40.47-17.64-2.49-24.7-2.69-34.45,3.53,4.98-11.21,11.41-19.09,32.79-20.96,16.19-11,35.07-16.19,54.79,2.7,19.72,18.88,23.45,52.71,13.7,73.47Z"/>
    <ellipse class="st0" cx="218.699" cy="66.896" rx="2.626" ry="1.232"/>
  </g>
  <g>
    <path d="M425.016,182.819c-8.406,7.693-19.158,11.541-32.25,11.541-16.203,0-28.939-5.197-38.213-15.592-9.273-10.443-13.908-24.76-13.908-42.949,0-19.666,5.273-34.822,15.82-45.472,9.17-9.272,20.836-13.909,35-13.909,18.953,0,32.811,6.217,41.574,18.647,4.84,6.98,7.439,13.985,7.795,21.017h-23.537c-1.529-5.4-3.49-9.477-5.885-12.229-4.279-4.891-10.623-7.336-19.029-7.336-8.559,0-15.311,3.452-20.252,10.355-4.943,6.904-7.412,16.673-7.412,29.308s2.609,22.1,7.832,28.391c5.223,6.293,11.857,9.438,19.908,9.438,8.254,0,14.545-2.699,18.877-8.1,2.395-2.904,4.381-7.26,5.961-13.068h23.309c-2.039,12.279-7.234,22.266-15.59,29.957Z"/>
    <path d="M449.44,78.578h21.781v112.647h-21.781v-112.647Z"/>
    <path d="M555.944,166.77c-.562,4.943-3.135,9.961-7.719,15.055-7.135,8.102-17.119,12.152-29.959,12.152-10.598,0-19.945-3.412-28.047-10.24-8.1-6.828-12.15-17.934-12.15-33.32,0-14.418,3.654-25.474,10.967-33.168,7.311-7.692,16.799-11.539,28.467-11.539,6.928,0,13.17,1.299,18.723,3.897,5.553,2.598,10.139,6.7,13.758,12.304,3.26,4.942,5.373,10.674,6.342,17.196.561,3.82.789,9.322.688,16.506h-57.01c.305,8.357,2.928,14.215,7.871,17.578,3.006,2.09,6.623,3.133,10.852,3.133,4.482,0,8.127-1.273,10.928-3.82,1.529-1.377,2.879-3.287,4.051-5.732h22.24ZM534.391,141.244c-.355-5.756-2.102-10.125-5.234-13.106s-7.02-4.471-11.654-4.471c-5.043,0-8.955,1.58-11.73,4.738-2.777,3.159-4.521,7.439-5.234,12.838h33.854Z"/>
    <path d="M555.684,107.925h24.455l17.348,61.445,17.73-61.445h23.385l-30.035,83.3h-23.002l-29.881-83.3Z"/>
    <path d="M714.383,166.77c-.562,4.943-3.135,9.961-7.719,15.055-7.135,8.102-17.119,12.152-29.959,12.152-10.598,0-19.945-3.412-28.047-10.24-8.1-6.828-12.15-17.934-12.15-33.32,0-14.418,3.654-25.474,10.967-33.168,7.311-7.692,16.799-11.539,28.467-11.539,6.928,0,13.17,1.299,18.723,3.897,5.553,2.598,10.139,6.7,13.758,12.304,3.26,4.942,5.373,10.674,6.342,17.196.561,3.82.789,9.322.688,16.506h-57.01c.305,8.357,2.928,14.215,7.871,17.578,3.006,2.09,6.623,3.133,10.852,3.133,4.482,0,8.127-1.273,10.928-3.82,1.529-1.377,2.879-3.287,4.051-5.732h22.24ZM692.831,141.244c-.355-5.756-2.102-10.125-5.234-13.106s-7.02-4.471-11.654-4.471c-5.043,0-8.955,1.58-11.73,4.738-2.777,3.159-4.521,7.439-5.234,12.838h33.854Z"/>
    <path d="M764.18,128.024c-8.764,0-14.648,2.854-17.654,8.558-1.682,3.211-2.521,8.152-2.521,14.826v39.816h-21.934v-83.3h20.787v14.521c3.363-5.553,6.291-9.349,8.789-11.387,4.074-3.413,9.373-5.121,15.895-5.121.408,0,.752.014,1.033.039.279.025.902.064,1.871.114v22.315c-1.375-.153-2.598-.255-3.668-.306-1.07-.05-1.938-.076-2.598-.076Z"/>
  </g>
  <g>
    <path d="M879.647,182.875c-8.406,7.693-19.156,11.54-32.25,11.54-16.201,0-28.939-5.197-38.211-15.591-9.273-10.443-13.908-24.761-13.908-42.949,0-19.666,5.271-34.822,15.818-45.472,9.172-9.272,20.838-13.909,35.002-13.909,18.953,0,32.811,6.217,41.574,18.647,4.84,6.98,7.438,13.985,7.795,21.017h-23.539c-1.527-5.4-3.49-9.477-5.885-12.229-4.279-4.891-10.621-7.336-19.029-7.336-8.559,0-15.311,3.452-20.252,10.355-4.941,6.904-7.412,16.673-7.412,29.308s2.609,22.1,7.834,28.392c5.221,6.292,11.857,9.438,19.908,9.438,8.252,0,14.545-2.699,18.875-8.101,2.395-2.904,4.381-7.26,5.961-13.068h23.311c-2.039,12.279-7.236,22.266-15.592,29.958Z"/>
    <path d="M945.493,128.08c-8.764,0-14.648,2.854-17.652,8.559-1.682,3.21-2.523,8.152-2.523,14.826v39.816h-21.934v-83.301h20.787v14.521c3.363-5.553,6.293-9.349,8.789-11.387,4.076-3.413,9.373-5.121,15.896-5.121.406,0,.75.014,1.031.039.279.025.904.064,1.873.114v22.315c-1.377-.153-2.6-.255-3.668-.306-1.07-.05-1.938-.076-2.6-.076Z"/>
    <path d="M1026.165,118.528c7.031,8.814,10.547,19.233,10.547,31.257,0,12.228-3.516,22.686-10.547,31.371-7.031,8.688-17.705,13.03-32.021,13.03s-24.99-4.343-32.021-13.03c-7.029-8.686-10.545-19.144-10.545-31.371,0-12.023,3.516-22.442,10.545-31.257,7.031-8.814,17.705-13.222,32.021-13.222s24.99,4.407,32.021,13.222ZM994.067,123.724c-6.369,0-11.271,2.255-14.711,6.764s-5.158,10.941-5.158,19.297,1.719,14.801,5.158,19.335c3.439,4.535,8.342,6.801,14.711,6.801s11.26-2.266,14.674-6.801c3.412-4.534,5.119-10.979,5.119-19.335s-1.707-14.788-5.119-19.297c-3.414-4.509-8.305-6.764-14.674-6.764Z"/>
    <path d="M1107.678,191.281l-13.068-60.68-13.223,60.68h-22.621l-23.385-83.301h23.385l12.992,59.763,11.998-59.763h22.086l12.688,59.992,12.992-59.992h22.697l-24.15,83.301h-22.391Z"/>
  </g>
</svg>