<svg width="272" height="272" viewBox="0 0 272 272" fill="none" xmlns="http://www.w3.org/2000/svg">
  <style>
    .st0 { fill: #fff; }
    .st1 { fill: #ffbc00; }
  </style>
  <g transform="translate(-80, 0)">
    <path class="st1" d="M315.797,135.963c0,56.61-40.45,103.76-94.02,114.13-7.2,1.41-14.64,2.14-22.25,2.14-13.47,0-26.41-2.29-38.44-6.51-18.98-6.64-35.7-18.06-48.72-32.82-6.53-7.37-12.12-15.57-16.61-24.43-8-15.77-12.5-33.62-12.5-52.51,0-64.21,52.06-116.27,116.27-116.27s116.27,52.06,116.27,116.27Z"/>
    <path fill="black" d="M261.587,141.693c-9.76,20.75-25.32,39.43-60.4,54.58-5.81,5.6-8.5,14.13-7.88,19.31.62,5.19,3.32,23.87,3.32,23.87,0,0,21.47,4.99,25.15,10.64-7.2,1.41-14.64,2.14-22.25,2.14-13.47,0-26.41-2.29-38.44-6.51,3.81-3.02,13.38-5.01,24.34-6.06-.21-3.32-1.46-8.51-1.46-8.51,0,0-13.69-12.25-8.71-15.77,4.98-3.53,8.29-8.94,8.29-13.09-11.08,1.21-40.51,6.76-71.18,10.61-6.08.76-12.22,1.46-18.27,2.05-37.35,10.79-68.28,21.17-73.78,20.55,28.3-17.6,53.5-33.29,75.44-47.03,53.37-33.44,87.42-55.34,99.62-65.05,17.23-13.69,13.08-31.33-.62-40.47-17.64-2.49-24.7-2.69-34.45,3.53,4.98-11.21,11.41-19.09,32.79-20.96,16.19-11,35.07-16.19,54.79,2.7,19.72,18.88,23.45,52.71,13.7,73.47Z"/>
    <ellipse class="st0" cx="218.699" cy="66.896" rx="2.626" ry="1.232"/>
  </g>
</svg>
