<svg xmlns="http://www.w3.org/2000/svg" viewBox="0 0 64 64" fill="none">
  <rect x="4" y="14" width="56" height="36" rx="6" stroke="#60a5fa" stroke-width="3" fill="none"/>
  <path d="M20 30l-6 6 6 6" stroke="#60a5fa" stroke-width="2.5" stroke-linecap="round" stroke-linejoin="round"/>
  <path d="M44 30l6 6-6 6" stroke="#60a5fa" stroke-width="2.5" stroke-linecap="round" stroke-linejoin="round"/>
  <path d="M36 26l-8 16" stroke="#60a5fa" stroke-width="2.5" stroke-linecap="round"/>
  <circle cx="16" cy="8" r="3" fill="#60a5fa"/>
  <circle cx="32" cy="8" r="3" fill="#60a5fa"/>
  <circle cx="48" cy="8" r="3" fill="#60a5fa"/>
  <line x1="16" y1="11" x2="16" y2="14" stroke="#60a5fa" stroke-width="2"/>
  <line x1="32" y1="11" x2="32" y2="14" stroke="#60a5fa" stroke-width="2"/>
  <line x1="48" y1="11" x2="48" y2="14" stroke="#60a5fa" stroke-width="2"/>
  <circle cx="16" cy="56" r="3" fill="#60a5fa"/>
  <circle cx="32" cy="56" r="3" fill="#60a5fa"/>
  <circle cx="48" cy="56" r="3" fill="#60a5fa"/>
  <line x1="16" y1="50" x2="16" y2="53" stroke="#60a5fa" stroke-width="2"/>
  <line x1="32" y1="50" x2="32" y2="53" stroke="#60a5fa" stroke-width="2"/>
  <line x1="48" y1="50" x2="48" y2="53" stroke="#60a5fa" stroke-width="2"/>
</svg>
