<svg xmlns="http://www.w3.org/2000/svg" viewBox="0 0 256 289">
  <path d="M128 288.464c-3.975 0-7.685-1.06-11.13-2.915l-35.247-20.936c-5.3-2.915-2.65-3.975-1.06-4.505 7.155-2.385 8.48-2.915 15.9-7.156.796-.53 1.856-.265 2.65.265l27.032 16.166c1.06.53 2.385.53 3.18 0l105.74-61.217c1.06-.53 1.59-1.59 1.59-2.915V83.08c0-1.325-.53-2.385-1.59-2.915L128.53 19.167c-1.06-.53-2.385-.53-3.18 0L19.875 80.165c-1.06.53-1.59 1.856-1.59 2.915v122.17c0 1.06.53 2.385 1.59 2.915l28.887 16.695c15.636 7.95 25.44-1.325 25.44-10.6V93.68c0-1.59 1.325-3.18 3.18-3.18h13.25c1.59 0 3.18 1.325 3.18 3.18v120.58c0 20.936-11.396 33.126-31.272 33.126-6.095 0-10.865 0-24.38-6.625l-27.827-15.9C4.24 220.353 0 213.197 0 205.512V83.344c0-7.685 4.24-14.842 11.13-18.817L116.87 3.31c6.625-3.71 15.636-3.71 22.26 0l105.74 61.217c6.89 3.975 11.13 11.132 11.13 18.817v122.17c0 7.684-4.24 14.84-11.13 18.816L139.13 285.55c-3.445 1.59-7.42 2.915-11.13 2.915zm32.596-84.009c-46.378 0-55.917-21.2-55.917-39.222 0-1.59 1.325-3.18 3.18-3.18h13.515c1.59 0 2.916 1.06 2.916 2.65 2.12 14.047 8.215 20.936 36.307 20.936 22.26 0 31.802-5.035 31.802-16.96 0-6.89-2.65-11.926-37.367-15.372-28.887-2.915-46.908-9.275-46.908-32.33 0-21.467 18.022-34.187 48.233-34.187 33.92 0 50.616 11.66 52.737 37.102 0 .795-.265 1.59-.795 2.385-.53.53-1.325 1.06-2.12 1.06h-13.78c-1.325 0-2.65-1.06-2.916-2.385-3.18-14.577-11.396-19.347-33.126-19.347-24.38 0-27.296 8.48-27.296 14.842 0 7.685 3.445 10.07 36.307 14.31 32.597 4.24 47.968 10.336 47.968 33.127-.265 23.317-19.347 36.572-53.004 36.572z" fill="#539e43"/>
</svg>
