<svg xmlns="http://www.w3.org/2000/svg" viewBox="0 0 64 64" fill="none">
  <rect x="4" y="12" width="56" height="40" rx="8" fill="#7f54b3" opacity="0.15" stroke="#7f54b3" stroke-width="2.5"/>
  <path d="M16 32c0-4 2-8 5-8s4 6 4 8-1 8-4 8-5-4-5-8z" stroke="#7f54b3" stroke-width="2" fill="none"/>
  <path d="M28 32c0-4 2-8 5-8s4 6 4 8-1 8-4 8-5-4-5-8z" stroke="#7f54b3" stroke-width="2" fill="none"/>
  <path d="M40 28c1-3 3-4 5-3s2 4 1 7-3 5-5 4-2-5-1-8z" stroke="#7f54b3" stroke-width="2" fill="none"/>
</svg>
