<svg id="Layer_1" data-name="Layer 1" xmlns="http://www.w3.org/2000/svg" viewBox="0 0 1366 768"><defs><style>.cls-1{fill:#2d538b;}.cls-2,.cls-4{fill:#fff;}.cls-2{opacity:0.48;}.cls-3{fill:none;}</style></defs><rect class="cls-1" x="-1.01" width="1365.18" height="768"/><path class="cls-2" d="M922.28,497.28l-17.93,9.57c-23.61,12.71-64.88,34.78-89.77,48.09l-3.81,2c-1.81,1-3.48,1.87-5,2.68l-5.62,3-2.14,1.2-1.34.74-2.47,1.27c-.47-.27-8.23-4-21.14-10.24l-2.68-1.27-6.08-3-10.17-5-11.91-5.82h-.07L712.37,526l-4.69-2.27-4.75-2.41h-.06l-4.75,2.41L693.44,526l-29.77,14.58h-.07l-11.91,5.82-10.16,5-6.09,3-2.68,1.27c-12.91,6.29-20.67,10-21.14,10.24l-2.47-1.27-1.34-.74-2.14-1.2-5.62-3c-1.54-.81-3.21-1.68-5-2.68l-3.81-2c-24.88-13.31-66.16-35.38-89.77-48.09l-17.93-9.57,24.69-40.54L702.87,136.66v2.87l.06.07L678.38,194l-31.5,69.91L645.47,267l-83,184.16-8.16,18.06-4.48,10,62.41,33.65,1.21.6.33-1.34,17.59-8.63,71.45-35.05h.06l71.45,35.05L792,512.13l.34,1.34,1.2-.6,62.41-33.65-4.48-10-8.16-18.06L760.33,267l-1.4-3.14L727.42,194,702.93,139.6v-2.94L897.6,456.74Z"/><line class="cls-3" x1="719.79" y1="624.81" x2="719.71" y2="624.99"/><path class="cls-4" d="M334.1,303.48h23.62q7,0,11.29,3.95t4.29,11.09a16.1,16.1,0,0,1-3.82,10.7q-3.83,4.56-11.76,4.56H341.21V356H334.1Zm27.73,7.22a15.46,15.46,0,0,0-6.47-1.11H341.21v18.19h14.15a13.52,13.52,0,0,0,7.78-2c2-1.36,3-3.75,3-7.18Q366.12,312.77,361.83,310.7Z"/><path class="cls-4" d="M442.75,303.48h7.18V356h-7.18Z"/><path class="cls-4" d="M520.39,303.48h8.39L555.3,346V303.48h6.75V356h-8l-26.91-42.49V356h-6.78Z"/><path class="cls-4" d="M632.14,303.48h8.4L667.05,346V303.48h6.76V356h-8l-26.91-42.49V356h-6.79Z"/><path class="cls-4" d="M889.21,307.3a18.52,18.52,0,0,1,6.11,11.94h-6.93a14.38,14.38,0,0,0-4.7-8q-3.51-3-9.88-3a15.84,15.84,0,0,0-12.52,5.45q-4.77,5.44-4.77,16.7,0,9.22,4.3,15t12.85,5.73q7.86,0,12-6a22.89,22.89,0,0,0,3.25-8.36h6.93a23.66,23.66,0,0,1-6.14,13.9q-6.25,6.75-16.87,6.76a22.25,22.25,0,0,1-15.36-5.54q-8.19-7.34-8.19-22.62,0-11.61,6.15-19.05,6.65-8.07,18.33-8.07Q883.71,302.05,889.21,307.3Z"/><path class="cls-4" d="M963.38,303.48h7.11v46.24h26.59V356h-33.7Z"/><path class="cls-4" d="M1063.67,303.48h38.27v6.43H1070.6v15.94h29v6.07h-29v17.8h31.87V356h-38.8Z"/><path class="cls-4" d="M795.61,354.17l-2.68,1.43-13.42,7.19-.57.3-.75.4-.84.45-.32.18-.2.11-.37.19-3.16-1.53-.4-.19-.91-.45-1.52-.74-1.78-.87h0l-4.45-2.18-.7-.34-.71-.36h0l-.71.36-.7.34L757,360.64h0l-1.78.87-1.52.74-.91.45-.4.19-3.16,1.53-.37-.19-.2-.11-.32-.18-.84-.45-.75-.4-.57-.3L732.7,355.6,730,354.17l3.69-6.06,29.1-47.85v.43h0l-3.67,8.13-4.71,10.45-.21.47-12.4,27.53-1.22,2.7-.67,1.49,9.33,5,.18.09,0-.2,2.63-1.29,10.68-5.24h0l10.68,5.24,2.63,1.29,0,.2.18-.09,9.33-5L785,350l-1.22-2.7-12.4-27.53-.21-.47-4.71-10.45-3.66-8.13v-.44l29.1,47.85Z"/><line class="cls-4" x1="739.94" y1="351.47" x2="739.86" y2="351.65"/></svg>