<svg id="Layer_1" data-name="Layer 1" xmlns="http://www.w3.org/2000/svg" viewBox="0 0 1366 768"><path d="M1028.37,467.77,904.15,404.48,700.08,69.15,496,404.48,371.8,467.77a1.76,1.76,0,0,0-1,1.56,1.87,1.87,0,0,0,1.93,1.79,2,2,0,0,0,.86-.19l122-56.18,117.53,62.88,86.9-42.3L787,477.63l117.53-62.88,122,56.18a1.93,1.93,0,0,0,2.79-1.6A1.77,1.77,0,0,0,1028.37,467.77ZM889.74,397.14,761.85,332l-6.55-3.34-6.36-3.24-26.39-13.45c-9-4.57-14.55-13.28-14.55-22.74V246.38a25.06,25.06,0,0,1,8.5-18.61l10.33-9.29,3-2.75,3-2.68,29-26.08ZM761,185.64l-30.32,18.65L702.9,90.1ZM724.67,208l-24.59,15.12L675.5,208l24.58-118.9ZM697.27,90.1,669.45,204.29l-30.32-18.65ZM638.32,187l29,26.08,3,2.68,3.05,2.75,10.33,9.29a25.06,25.06,0,0,1,8.5,18.61V289.2c0,9.46-5.58,18.17-14.55,22.74l-26.39,13.45-6.36,3.24L638.32,332,510.43,397.14ZM606,464.55,504.93,410.48l128.69-59.23Zm94.07-38.27L622.57,464l24.6-119,52.91-24.35L753,345,777.6,464Zm94.08,38.27-27.61-113.3,128.69,59.23Z"/><path d="M315.78,576.81H339.4q7,0,11.29,4c2.86,2.64,4.29,6.33,4.29,11.1a16.12,16.12,0,0,1-3.82,10.7q-3.82,4.56-11.76,4.56H322.89v22.19h-7.11ZM343.51,584a15.62,15.62,0,0,0-6.46-1.1H322.89v18.18h14.16a13.58,13.58,0,0,0,7.77-2q3-2,3-7.19C347.8,588,346.37,585.41,343.51,584Z"/><path d="M424.43,576.81h7.19v52.5h-7.19Z"/><path d="M502.07,576.81h8.39L537,619.34V576.81h6.75v52.5h-8l-26.9-42.49v42.49h-6.79Z"/><path d="M613.83,576.81h8.39l26.52,42.53V576.81h6.75v52.5h-8l-26.91-42.49v42.49h-6.78Z"/><path d="M870.89,580.64A18.58,18.58,0,0,1,877,592.57h-6.94a14.39,14.39,0,0,0-4.7-8q-3.51-3-9.88-3A15.81,15.81,0,0,0,843,587q-4.77,5.44-4.77,16.7,0,9.22,4.31,15t12.84,5.73q7.86,0,12-6a22.89,22.89,0,0,0,3.25-8.36h6.94a23.67,23.67,0,0,1-6.15,13.9q-6.25,6.75-16.87,6.75a22.24,22.24,0,0,1-15.36-5.53q-8.19-7.33-8.18-22.62,0-11.62,6.14-19,6.64-8.07,18.33-8.07Q865.4,575.39,870.89,580.64Z"/><path d="M945.06,576.81h7.11v46.24h26.59v6.26h-33.7Z"/><path d="M1045.35,576.81h38.27v6.44h-31.34v15.93h29v6.08h-29v17.79h31.88v6.26h-38.81Z"/><path d="M777.29,627.51l-2.68,1.43-13.42,7.19-.57.3-.75.4-.84.45-.32.18-.2.11-.37.19L755,636.23l-.4-.19-.91-.45-1.52-.74-1.78-.87h0l-4.45-2.18-.7-.34-.71-.36h0l-.71.36-.7.34L738.63,634h0l-1.78.87-1.52.74-.91.45-.4.19-3.16,1.53-.37-.19-.2-.11-.32-.18-.84-.45-.75-.4-.57-.3-13.42-7.19-2.68-1.43,3.69-6.06,29.1-47.85V574h0l-3.67,8.13-4.71,10.45-.21.47-12.4,27.53-1.22,2.7-.67,1.49,9.33,5,.18.09,0-.2,2.63-1.29,10.68-5.24h0l10.68,5.24,2.63,1.29.05.2.18-.09,9.33-5-.67-1.49-1.22-2.7-12.4-27.53-.21-.47-4.71-10.45L744.5,574v-.44l29.1,47.85Z"/><line x1="721.62" y1="624.81" x2="721.54" y2="624.99"/><path d="M328.44,663.29a7.1,7.1,0,0,1,3.68,2.73,9.65,9.65,0,0,1,1.54,3.49,17,17,0,0,1,.41,3.58,14.35,14.35,0,0,1-1.73,7.29,7.8,7.8,0,0,1-7.24,4h-9.32V662.82h9.32A11.13,11.13,0,0,1,328.44,663.29Zm-8.27,3.28v14.09h4.16a4.51,4.51,0,0,0,4.47-3.15,11.31,11.31,0,0,0,.69-4.12,10.13,10.13,0,0,0-1-5.06c-.69-1.17-2.06-1.76-4.12-1.76Z"/><path d="M358.92,666.64H347.49v4.59H358V675H347.49v5.55h12v3.88H343.08V662.82h15.84Z"/><path d="M371.71,677.74a4.4,4.4,0,0,0,.82,2.22,4.83,4.83,0,0,0,3.85,1.33,8.41,8.41,0,0,0,2.65-.35,2.53,2.53,0,0,0,1.93-2.51,1.84,1.84,0,0,0-.95-1.65,10.19,10.19,0,0,0-3-1l-2.34-.52a14.57,14.57,0,0,1-4.73-1.65,5.27,5.27,0,0,1-2.19-4.67,6.21,6.21,0,0,1,2.14-4.82c1.42-1.28,3.52-1.92,6.27-1.92a9.6,9.6,0,0,1,5.9,1.81,6.41,6.41,0,0,1,2.56,5.25h-4.34a3.1,3.1,0,0,0-1.74-2.77,6,6,0,0,0-2.69-.54,5.1,5.1,0,0,0-2.85.7,2.23,2.23,0,0,0-1.07,2,1.85,1.85,0,0,0,1.05,1.73,13.13,13.13,0,0,0,2.87.9l3.79.89a9.58,9.58,0,0,1,3.74,1.57,5.29,5.29,0,0,1,1.93,4.41A6.17,6.17,0,0,1,383,683a9.68,9.68,0,0,1-6.46,2,10.59,10.59,0,0,1-6.71-1.93,6.37,6.37,0,0,1-2.45-5.3Z"/><path d="M398.08,684.41H393.6V662.82h4.48Z"/><path d="M422.32,669.56a4.24,4.24,0,0,0-2.51-3.1,6.2,6.2,0,0,0-2.48-.48,5.39,5.39,0,0,0-4.28,2q-1.68,2-1.68,5.91t1.82,5.63a6,6,0,0,0,4.13,1.65,5.34,5.34,0,0,0,3.72-1.3,5.6,5.6,0,0,0,1.79-3.41h-5v-3.61h9v11.59h-3l-.45-2.7a10.3,10.3,0,0,1-2.35,2.16,8.24,8.24,0,0,1-4.39,1.1,9.12,9.12,0,0,1-7-3q-2.85-3-2.85-8.17a12,12,0,0,1,2.88-8.4,9.85,9.85,0,0,1,7.64-3.16,10,10,0,0,1,6.61,2.09,7.77,7.77,0,0,1,2.87,5.21Z"/><path d="M436.56,662.82h4.73l8.57,15v-15h4.21v21.59h-4.51l-8.8-15.32v15.32h-4.2Z"/><path d="M480.88,677.74a4.4,4.4,0,0,0,.82,2.22,4.83,4.83,0,0,0,3.85,1.33,8.35,8.35,0,0,0,2.64-.35,2.52,2.52,0,0,0,1.93-2.51,1.84,1.84,0,0,0-.94-1.65,10.19,10.19,0,0,0-3-1l-2.34-.52a14.56,14.56,0,0,1-4.74-1.65,5.28,5.28,0,0,1-2.18-4.67,6.18,6.18,0,0,1,2.14-4.82q2.13-1.92,6.27-1.92a9.6,9.6,0,0,1,5.9,1.81,6.41,6.41,0,0,1,2.56,5.25h-4.34a3.1,3.1,0,0,0-1.74-2.77,6,6,0,0,0-2.69-.54,5.15,5.15,0,0,0-2.86.7,2.22,2.22,0,0,0-1.06,2,1.85,1.85,0,0,0,1,1.73,13.13,13.13,0,0,0,2.87.9l3.79.89a9.58,9.58,0,0,1,3.74,1.57,5.29,5.29,0,0,1,1.93,4.41,6.2,6.2,0,0,1-2.29,4.91,9.69,9.69,0,0,1-6.47,2A10.61,10.61,0,0,1,479,683a6.37,6.37,0,0,1-2.44-5.3Z"/><path d="M519.77,682.49q-2.46,2.52-7.08,2.52t-7.08-2.52q-3.28-3.09-3.28-8.91t3.28-8.9q2.44-2.52,7.08-2.52t7.08,2.52q3.26,3,3.26,8.9T519.77,682.49Zm-2.83-3.28a10.79,10.79,0,0,0,0-11.24,5.12,5.12,0,0,0-4.25-2,5.21,5.21,0,0,0-4.28,2,10.69,10.69,0,0,0,0,11.25,5.21,5.21,0,0,0,4.28,2A5.14,5.14,0,0,0,516.94,679.21Z"/><path d="M532,662.82h4.51v17.71h10.79v3.88H532Z"/><path d="M555.79,662.82h4.59v13.26a7.56,7.56,0,0,0,.52,3.25c.55,1.21,1.74,1.81,3.57,1.81s3-.6,3.54-1.81a7.53,7.53,0,0,0,.53-3.25V662.82h4.59v13.27a11.16,11.16,0,0,1-1.07,5.36c-1.33,2.34-3.86,3.52-7.59,3.52s-6.27-1.18-7.61-3.52a11.16,11.16,0,0,1-1.07-5.36Z"/><path d="M598.65,662.82v3.82h-6.46v17.77h-4.54V666.64h-6.5v-3.82Z"/><path d="M610.9,684.41h-4.49V662.82h4.49Z"/><path d="M637.24,682.49Q634.8,685,630.16,685t-7.07-2.52q-3.29-3.09-3.29-8.91t3.29-8.9q2.45-2.52,7.07-2.52t7.08,2.52q3.27,3,3.27,8.9T637.24,682.49Zm-2.82-3.28a10.79,10.79,0,0,0,0-11.24,5.14,5.14,0,0,0-4.26-2,5.2,5.2,0,0,0-4.27,2,10.69,10.69,0,0,0,0,11.25,5.58,5.58,0,0,0,8.53,0Z"/><path d="M649.37,662.82h4.73l8.58,15v-15h4.2v21.59h-4.51l-8.79-15.32v15.32h-4.21Z"/><path d="M679.86,677.74a4.49,4.49,0,0,0,.82,2.22,4.83,4.83,0,0,0,3.85,1.33,8.41,8.41,0,0,0,2.65-.35,2.53,2.53,0,0,0,1.93-2.51,1.84,1.84,0,0,0-1-1.65,10.19,10.19,0,0,0-3-1l-2.33-.52a14.56,14.56,0,0,1-4.74-1.65,5.26,5.26,0,0,1-2.18-4.67,6.21,6.21,0,0,1,2.13-4.82q2.15-1.92,6.28-1.92a9.57,9.57,0,0,1,5.89,1.81,6.41,6.41,0,0,1,2.56,5.25h-4.34a3.1,3.1,0,0,0-1.74-2.77,6,6,0,0,0-2.69-.54,5.1,5.1,0,0,0-2.85.7,2.23,2.23,0,0,0-1.07,2,1.85,1.85,0,0,0,1,1.73,13.13,13.13,0,0,0,2.87.9l3.79.89a9.58,9.58,0,0,1,3.74,1.57,5.26,5.26,0,0,1,1.93,4.41,6.17,6.17,0,0,1-2.29,4.91,9.66,9.66,0,0,1-6.46,2A10.59,10.59,0,0,1,678,683a6.37,6.37,0,0,1-2.45-5.3Z"/><path d="M716.26,675.38a10.69,10.69,0,0,1,3.16-2.75l.45-.28a9.19,9.19,0,0,1-1.45-2.16,5.34,5.34,0,0,1-.51-2.28,4.51,4.51,0,0,1,1.6-3.69,6.27,6.27,0,0,1,4.16-1.33,5.52,5.52,0,0,1,3.84,1.36,4.43,4.43,0,0,1,1.52,3.47,4.92,4.92,0,0,1-.91,3.1,8.94,8.94,0,0,1-2.67,2.21l3.1,3.76a6.06,6.06,0,0,0,.82-1.65,6.24,6.24,0,0,0,.31-1.89h3.71a11.75,11.75,0,0,1-1,4,11.52,11.52,0,0,1-1.51,2.5l3.92,4.68h-5.06l-1.5-1.83a9,9,0,0,1-2,1.5,8.35,8.35,0,0,1-3.89.87,6.89,6.89,0,0,1-5.19-1.93,6.07,6.07,0,0,1-1.86-4.3A5.69,5.69,0,0,1,716.26,675.38Zm4.08,5.18a3.08,3.08,0,0,0,2.27.89,4.37,4.37,0,0,0,2-.47,6,6,0,0,0,1.51-1.05l-4-4.92a7.34,7.34,0,0,0-2.1,1.83,3.17,3.17,0,0,0-.51,1.75A2.78,2.78,0,0,0,720.34,680.56ZM722.18,669a17,17,0,0,0,1.18,1.51,8.33,8.33,0,0,0,1.31-1,2.43,2.43,0,0,0,.76-1.72,1.75,1.75,0,0,0-.46-1.2,1.72,1.72,0,0,0-1.38-.53,2,2,0,0,0-1.08.31,1.54,1.54,0,0,0-.76,1.44A2.21,2.21,0,0,0,722.18,669Z"/><path d="M771.27,662.82h6.49v21.59h-4.2V669.8c0-.42,0-1,0-1.76s0-1.34,0-1.75l-4.1,18.12h-4.38L761,666.29c0,.41,0,1,0,1.75s0,1.34,0,1.76v14.61h-4.2V662.82h6.57l3.93,17Z"/><path d="M793.61,662.82h5.11l7.64,21.59h-4.9L800,680h-8l-1.46,4.44H785.9Zm-.3,13.43h5.53l-2.72-8.5Z"/><path d="M814.52,662.82h4.74l8.57,15v-15H832v21.59h-4.51l-8.79-15.32v15.32h-4.21Z"/><path d="M841.76,662.82h4.59v13.26a7.56,7.56,0,0,0,.52,3.25c.55,1.21,1.74,1.81,3.57,1.81s3-.6,3.54-1.81a7.53,7.53,0,0,0,.53-3.25V662.82h4.59v13.27a11.16,11.16,0,0,1-1.07,5.36c-1.33,2.34-3.86,3.52-7.59,3.52s-6.27-1.18-7.61-3.52a11.16,11.16,0,0,1-1.07-5.36Z"/><path d="M868.93,662.85h15.4v3.79H873.41v5H883v3.75h-9.57v9h-4.48Z"/><path d="M897.28,662.82h5.11L910,684.41h-4.89L903.71,680h-8l-1.47,4.44h-4.72ZM897,676.25h5.53l-2.73-8.5Z"/><path d="M920.34,665.07a8.91,8.91,0,0,1,6.64-2.66q5.38,0,7.88,3.57a7.8,7.8,0,0,1,1.48,4h-4.51a6.07,6.07,0,0,0-1.11-2.34,4.9,4.9,0,0,0-7.38.57,9.71,9.71,0,0,0-1.39,5.62,8.49,8.49,0,0,0,1.47,5.44,4.59,4.59,0,0,0,3.73,1.81,4.24,4.24,0,0,0,3.55-1.55,6.89,6.89,0,0,0,1.11-2.5h4.49a9.77,9.77,0,0,1-3,5.74,8.64,8.64,0,0,1-6.11,2.21,9.19,9.19,0,0,1-7.25-3c-1.76-2-2.63-4.75-2.63-8.23Q917.34,668.14,920.34,665.07Z"/><path d="M961.13,662.82v3.82h-6.46v17.77h-4.54V666.64h-6.49v-3.82Z"/><path d="M969.26,662.82h4.59v13.26a7.56,7.56,0,0,0,.52,3.25c.55,1.21,1.74,1.81,3.57,1.81s3-.6,3.54-1.81a7.53,7.53,0,0,0,.53-3.25V662.82h4.59v13.27a11.16,11.16,0,0,1-1.07,5.36c-1.33,2.34-3.86,3.52-7.59,3.52s-6.27-1.18-7.61-3.52a11.16,11.16,0,0,1-1.07-5.36Z"/><path d="M1010.27,663.37a5.48,5.48,0,0,1,2,1.51,6.44,6.44,0,0,1,1.08,1.82,6,6,0,0,1,.4,2.27,6.42,6.42,0,0,1-.77,3,4.31,4.31,0,0,1-2.57,2.11,4,4,0,0,1,2.12,1.7,7.08,7.08,0,0,1,.62,3.38v1.45a10.91,10.91,0,0,0,.12,2,1.83,1.83,0,0,0,.84,1.23v.54h-5c-.13-.48-.23-.87-.29-1.16a10.29,10.29,0,0,1-.19-1.86l0-2a4.13,4.13,0,0,0-.71-2.75,3.65,3.65,0,0,0-2.57-.69h-4.41v8.47h-4.41V662.82h10.33A9.5,9.5,0,0,1,1010.27,663.37Zm-9.33,3.2v5.8h4.86A5.28,5.28,0,0,0,1008,672a2.44,2.44,0,0,0,1.28-2.44A2.73,2.73,0,0,0,1008,667a4.42,4.42,0,0,0-2.09-.38Z"/><path d="M1027.71,684.41h-4.49V662.82h4.49Z"/><path d="M1037.35,662.82h4.73l8.57,15v-15h4.21v21.59h-4.51l-8.8-15.32v15.32h-4.2Z"/><path d="M1079.11,669.56a4.26,4.26,0,0,0-2.51-3.1,6.2,6.2,0,0,0-2.48-.48,5.39,5.39,0,0,0-4.28,2q-1.68,2-1.68,5.91t1.82,5.63a6,6,0,0,0,4.13,1.65,5.36,5.36,0,0,0,3.72-1.3,5.65,5.65,0,0,0,1.79-3.41h-5v-3.61h9v11.59h-3l-.45-2.7a10.51,10.51,0,0,1-2.35,2.16,8.27,8.27,0,0,1-4.39,1.1,9.12,9.12,0,0,1-7-3,11.34,11.34,0,0,1-2.86-8.17,12,12,0,0,1,2.89-8.4,9.85,9.85,0,0,1,7.64-3.16,10,10,0,0,1,6.61,2.09,7.77,7.77,0,0,1,2.87,5.21Z"/></svg>