<svg id="Layer_1" data-name="Layer 1" xmlns="http://www.w3.org/2000/svg" viewBox="0 0 1366 768"><defs><style>.cls-1{fill:#2d538b;}.cls-2{fill:#fff;}.cls-3{fill:none;}</style></defs><rect class="cls-1" x="0.41" width="1365.18" height="768"/><path class="cls-2" d="M1028,467.77,903.74,404.48,699.67,69.15,495.61,404.48,371.39,467.77a1.77,1.77,0,0,0-1,1.56,1.87,1.87,0,0,0,1.94,1.79,2.06,2.06,0,0,0,.86-.19l122.05-56.18,117.53,62.88,86.9-42.3,86.91,42.3,117.53-62.88,122.05,56.18a1.93,1.93,0,0,0,2.79-1.6A1.77,1.77,0,0,0,1028,467.77ZM889.33,397.14,761.43,332l-6.54-3.34-6.36-3.24-26.39-13.45c-9-4.57-14.55-13.28-14.55-22.74V246.38a25.06,25.06,0,0,1,8.5-18.61l10.33-9.29,3-2.75,3-2.68,29-26.08Zm-128.7-211.5-30.32,18.65L702.49,90.1ZM724.25,208l-24.58,15.12L675.09,208l24.58-118.9ZM696.86,90.1,669,204.29l-30.33-18.65Zm-59,96.87,29,26.08,3,2.68,3,2.75,10.32,9.29a25,25,0,0,1,8.5,18.61V289.2c0,9.46-5.57,18.17-14.54,22.74l-26.4,13.45-6.35,3.24L637.91,332,510,397.14ZM605.6,464.55,504.52,410.48l128.69-59.23Zm94.07-38.27L622.16,464l24.6-119,52.91-24.35L752.58,345l24.61,119Zm94.08,38.27-27.61-113.3,128.68,59.23Z"/><path class="cls-2" d="M315.37,576.81H339q7,0,11.29,4c2.86,2.64,4.29,6.33,4.29,11.1a16.12,16.12,0,0,1-3.82,10.7q-3.83,4.56-11.76,4.56H322.48v22.19h-7.11ZM343.1,584a15.64,15.64,0,0,0-6.47-1.1H322.48v18.18h14.15a13.54,13.54,0,0,0,7.77-2q3-2,3-7.19C347.39,588,346,585.41,343.1,584Z"/><path class="cls-2" d="M424,576.81h7.18v52.5H424Z"/><path class="cls-2" d="M501.66,576.81h8.39l26.52,42.53V576.81h6.75v52.5h-8l-26.91-42.49v42.49h-6.78Z"/><path class="cls-2" d="M613.41,576.81h8.4l26.51,42.53V576.81h6.76v52.5h-8L620.2,586.82v42.49h-6.79Z"/><path class="cls-2" d="M870.48,580.64a18.52,18.52,0,0,1,6.11,11.93h-6.93a14.45,14.45,0,0,0-4.7-8q-3.51-3-9.88-3A15.81,15.81,0,0,0,842.56,587q-4.77,5.44-4.77,16.7,0,9.22,4.3,15t12.85,5.73q7.86,0,12-6a22.89,22.89,0,0,0,3.25-8.36h6.93a23.66,23.66,0,0,1-6.14,13.9q-6.26,6.75-16.87,6.75a22.24,22.24,0,0,1-15.36-5.53q-8.19-7.33-8.19-22.62,0-11.62,6.15-19,6.65-8.07,18.33-8.07Q865,575.39,870.48,580.64Z"/><path class="cls-2" d="M944.65,576.81h7.11v46.24h26.59v6.26h-33.7Z"/><path class="cls-2" d="M1044.94,576.81h38.27v6.44h-31.34v15.93h29v6.08h-29v17.79h31.87v6.26h-38.8Z"/><path class="cls-2" d="M776.88,627.51l-2.68,1.43-13.42,7.19-.57.3-.75.4-.84.45-.32.18-.2.11-.37.19-3.16-1.53-.4-.19-.91-.45-1.52-.74L750,634h0l-4.45-2.18-.7-.34-.71-.36h0l-.71.36-.7.34L738.22,634h0l-1.78.87-1.52.74L734,636l-.4.19-3.16,1.53-.37-.19-.2-.11-.32-.18-.84-.45-.75-.4-.57-.3L714,628.94l-2.68-1.43,3.69-6.06,29.1-47.85V574h0l-3.67,8.13-4.71,10.45-.21.47-12.4,27.53-1.22,2.7-.67,1.49,9.33,5,.18.09,0-.2,2.63-1.29,10.68-5.24h0l10.68,5.24,2.63,1.29.05.2.18-.09,9.33-5-.67-1.49-1.22-2.7-12.4-27.53-.21-.47-4.71-10.45L744.09,574v-.44l29.1,47.85Z"/><line class="cls-3" x1="721.21" y1="624.81" x2="721.13" y2="624.99"/><path class="cls-2" d="M328,663.29a7.14,7.14,0,0,1,3.68,2.73,9.65,9.65,0,0,1,1.54,3.49,17,17,0,0,1,.41,3.58,14.35,14.35,0,0,1-1.73,7.29,7.8,7.8,0,0,1-7.25,4h-9.31V662.82h9.31A11.2,11.2,0,0,1,328,663.29Zm-8.28,3.28v14.09h4.17a4.5,4.5,0,0,0,4.46-3.15,11.1,11.1,0,0,0,.69-4.12,10.14,10.14,0,0,0-1-5.06c-.69-1.17-2.06-1.76-4.12-1.76Z"/><path class="cls-2" d="M358.51,666.64H347.08v4.59h10.49V675H347.08v5.55h12v3.88H342.67V662.82h15.84Z"/><path class="cls-2" d="M371.3,677.74a4.4,4.4,0,0,0,.82,2.22,4.83,4.83,0,0,0,3.85,1.33,8.35,8.35,0,0,0,2.64-.35,2.52,2.52,0,0,0,1.93-2.51,1.84,1.84,0,0,0-.94-1.65,10.19,10.19,0,0,0-3-1l-2.34-.52a14.39,14.39,0,0,1-4.73-1.65,5.27,5.27,0,0,1-2.19-4.67,6.18,6.18,0,0,1,2.14-4.82q2.13-1.92,6.27-1.92a9.6,9.6,0,0,1,5.9,1.81,6.41,6.41,0,0,1,2.56,5.25h-4.34a3.1,3.1,0,0,0-1.74-2.77,6,6,0,0,0-2.69-.54,5.15,5.15,0,0,0-2.86.7,2.22,2.22,0,0,0-1.06,2,1.85,1.85,0,0,0,1.05,1.73,13.13,13.13,0,0,0,2.87.9l3.79.89a9.58,9.58,0,0,1,3.74,1.57,5.29,5.29,0,0,1,1.93,4.41,6.2,6.2,0,0,1-2.29,4.91,9.69,9.69,0,0,1-6.47,2,10.61,10.61,0,0,1-6.71-1.93,6.37,6.37,0,0,1-2.44-5.3Z"/><path class="cls-2" d="M397.67,684.41h-4.48V662.82h4.48Z"/><path class="cls-2" d="M421.91,669.56a4.26,4.26,0,0,0-2.51-3.1,6.2,6.2,0,0,0-2.48-.48,5.38,5.38,0,0,0-4.28,2q-1.68,2-1.68,5.91c0,2.65.6,4.53,1.82,5.63a6,6,0,0,0,4.13,1.65,5.36,5.36,0,0,0,3.72-1.3,5.65,5.65,0,0,0,1.79-3.41h-5v-3.61h9v11.59h-3l-.45-2.7a10.51,10.51,0,0,1-2.35,2.16,8.28,8.28,0,0,1-4.4,1.1,9.12,9.12,0,0,1-7-3,11.34,11.34,0,0,1-2.86-8.17,12,12,0,0,1,2.89-8.4,9.83,9.83,0,0,1,7.63-3.16,10,10,0,0,1,6.62,2.09,7.77,7.77,0,0,1,2.87,5.21Z"/><path class="cls-2" d="M436.15,662.82h4.73l8.57,15v-15h4.21v21.59h-4.52l-8.79-15.32v15.32h-4.2Z"/><path class="cls-2" d="M480.47,677.74a4.4,4.4,0,0,0,.82,2.22,4.82,4.82,0,0,0,3.84,1.33,8.41,8.41,0,0,0,2.65-.35,2.52,2.52,0,0,0,1.93-2.51,1.84,1.84,0,0,0-.94-1.65,10.19,10.19,0,0,0-3-1l-2.34-.52a14.56,14.56,0,0,1-4.74-1.65,5.28,5.28,0,0,1-2.18-4.67,6.18,6.18,0,0,1,2.14-4.82q2.13-1.92,6.27-1.92a9.62,9.62,0,0,1,5.9,1.81,6.43,6.43,0,0,1,2.56,5.25H489a3.1,3.1,0,0,0-1.74-2.77,6,6,0,0,0-2.69-.54,5.13,5.13,0,0,0-2.86.7,2.22,2.22,0,0,0-1.06,2,1.85,1.85,0,0,0,1.05,1.73,12.94,12.94,0,0,0,2.87.9l3.79.89a9.53,9.53,0,0,1,3.73,1.57,5.26,5.26,0,0,1,1.93,4.41,6.19,6.19,0,0,1-2.28,4.91,9.69,9.69,0,0,1-6.47,2A10.61,10.61,0,0,1,478.6,683a6.37,6.37,0,0,1-2.44-5.3Z"/><path class="cls-2" d="M519.35,682.49q-2.45,2.52-7.07,2.52t-7.08-2.52q-3.29-3.09-3.28-8.91t3.28-8.9q2.44-2.52,7.08-2.52t7.07,2.52q3.27,3,3.27,8.9T519.35,682.49Zm-2.82-3.28a10.79,10.79,0,0,0,0-11.24,5.13,5.13,0,0,0-4.25-2,5.21,5.21,0,0,0-4.28,2,10.69,10.69,0,0,0,0,11.25,5.21,5.21,0,0,0,4.28,2A5.15,5.15,0,0,0,516.53,679.21Z"/><path class="cls-2" d="M531.56,662.82h4.51v17.71h10.79v3.88h-15.3Z"/><path class="cls-2" d="M555.38,662.82H560v13.26a7.56,7.56,0,0,0,.52,3.25c.55,1.21,1.73,1.81,3.56,1.81s3-.6,3.55-1.81a7.53,7.53,0,0,0,.53-3.25V662.82h4.59v13.27a11.16,11.16,0,0,1-1.07,5.36c-1.33,2.34-3.86,3.52-7.6,3.52s-6.27-1.18-7.6-3.52a11.16,11.16,0,0,1-1.07-5.36Z"/><path class="cls-2" d="M598.24,662.82v3.82h-6.46v17.77h-4.55V666.64h-6.49v-3.82Z"/><path class="cls-2" d="M610.49,684.41H606V662.82h4.49Z"/><path class="cls-2" d="M636.83,682.49q-2.45,2.52-7.08,2.52t-7.08-2.52q-3.27-3.09-3.28-8.91t3.28-8.9q2.46-2.52,7.08-2.52t7.08,2.52q3.27,3,3.27,8.9T636.83,682.49ZM634,679.21A10.84,10.84,0,0,0,634,668a5.14,5.14,0,0,0-4.26-2,5.22,5.22,0,0,0-4.28,2,10.74,10.74,0,0,0,0,11.25,5.22,5.22,0,0,0,4.28,2A5.16,5.16,0,0,0,634,679.21Z"/><path class="cls-2" d="M649,662.82h4.73l8.58,15v-15h4.2v21.59H662l-8.79-15.32v15.32H649Z"/><path class="cls-2" d="M679.45,677.74a4.4,4.4,0,0,0,.82,2.22,4.83,4.83,0,0,0,3.85,1.33,8.46,8.46,0,0,0,2.65-.35,2.53,2.53,0,0,0,1.93-2.51,1.84,1.84,0,0,0-1-1.65,10.19,10.19,0,0,0-3-1l-2.34-.52a14.57,14.57,0,0,1-4.73-1.65,5.27,5.27,0,0,1-2.19-4.67,6.21,6.21,0,0,1,2.14-4.82q2.13-1.92,6.27-1.92a9.6,9.6,0,0,1,5.9,1.81,6.41,6.41,0,0,1,2.56,5.25H688a3.1,3.1,0,0,0-1.74-2.77,6,6,0,0,0-2.69-.54,5.1,5.1,0,0,0-2.85.7,2.23,2.23,0,0,0-1.07,2,1.85,1.85,0,0,0,1.05,1.73,13.13,13.13,0,0,0,2.87.9l3.79.89a9.58,9.58,0,0,1,3.74,1.57,5.29,5.29,0,0,1,1.93,4.41,6.17,6.17,0,0,1-2.29,4.91,9.68,9.68,0,0,1-6.46,2,10.57,10.57,0,0,1-6.71-1.93,6.37,6.37,0,0,1-2.45-5.3Z"/><path class="cls-2" d="M715.84,675.38a10.75,10.75,0,0,1,3.17-2.75l.45-.28a8.89,8.89,0,0,1-1.45-2.16,5.34,5.34,0,0,1-.51-2.28,4.51,4.51,0,0,1,1.6-3.69,6.26,6.26,0,0,1,4.15-1.33,5.52,5.52,0,0,1,3.85,1.36,4.46,4.46,0,0,1,1.52,3.47,4.92,4.92,0,0,1-.91,3.1A8.94,8.94,0,0,1,725,673l3.1,3.76a6.36,6.36,0,0,0,.82-1.65,6.56,6.56,0,0,0,.31-1.89H733a11.49,11.49,0,0,1-1,4,11.21,11.21,0,0,1-1.52,2.5l3.92,4.68h-5l-1.5-1.83a9.27,9.27,0,0,1-2,1.5,8.35,8.35,0,0,1-3.89.87,6.87,6.87,0,0,1-5.19-1.93,6.07,6.07,0,0,1-1.86-4.3A5.76,5.76,0,0,1,715.84,675.38Zm4.09,5.18a3.07,3.07,0,0,0,2.27.89,4.36,4.36,0,0,0,2-.47,5.88,5.88,0,0,0,1.52-1.05l-4-4.92a7.34,7.34,0,0,0-2.1,1.83,3.17,3.17,0,0,0-.51,1.75A2.74,2.74,0,0,0,719.93,680.56ZM721.76,669c.19.28.58.79,1.19,1.51a8.33,8.33,0,0,0,1.31-1,2.47,2.47,0,0,0,.76-1.72,1.8,1.8,0,0,0-.46-1.2,1.72,1.72,0,0,0-1.38-.53,2,2,0,0,0-1.08.31,1.54,1.54,0,0,0-.76,1.44A2.27,2.27,0,0,0,721.76,669Z"/><path class="cls-2" d="M770.86,662.82h6.49v21.59h-4.2V669.8c0-.42,0-1,0-1.76s0-1.34,0-1.75l-4.1,18.12H764.7l-4.07-18.12c0,.41,0,1,0,1.75s0,1.34,0,1.76v14.61h-4.2V662.82H763l3.94,17Z"/><path class="cls-2" d="M793.2,662.82h5.1L806,684.41h-4.9L799.63,680h-8l-1.46,4.44h-4.72Zm-.3,13.43h5.53l-2.73-8.5Z"/><path class="cls-2" d="M814.11,662.82h4.73l8.58,15v-15h4.2v21.59h-4.51l-8.79-15.32v15.32h-4.21Z"/><path class="cls-2" d="M841.35,662.82h4.59v13.26a7.56,7.56,0,0,0,.52,3.25c.55,1.21,1.74,1.81,3.56,1.81s3-.6,3.55-1.81a7.53,7.53,0,0,0,.53-3.25V662.82h4.59v13.27a11.16,11.16,0,0,1-1.07,5.36c-1.33,2.34-3.86,3.52-7.6,3.52s-6.27-1.18-7.6-3.52a11.16,11.16,0,0,1-1.07-5.36Z"/><path class="cls-2" d="M868.51,662.85h15.4v3.79H873v5h9.57v3.75H873v9h-4.49Z"/><path class="cls-2" d="M896.87,662.82H902l7.64,21.59h-4.89L903.3,680h-7.95l-1.47,4.44h-4.72Zm-.29,13.43h5.53l-2.73-8.5Z"/><path class="cls-2" d="M919.92,665.07a8.93,8.93,0,0,1,6.64-2.66q5.4,0,7.89,3.57a7.8,7.8,0,0,1,1.48,4h-4.51a6.07,6.07,0,0,0-1.11-2.34,4.9,4.9,0,0,0-7.38.57,9.71,9.71,0,0,0-1.39,5.62A8.49,8.49,0,0,0,923,679.3a4.59,4.59,0,0,0,3.73,1.81,4.21,4.21,0,0,0,3.54-1.55,6.88,6.88,0,0,0,1.12-2.5h4.48a9.7,9.7,0,0,1-3,5.74,8.66,8.66,0,0,1-6.11,2.21,9.19,9.19,0,0,1-7.25-3c-1.76-2-2.64-4.75-2.64-8.23Q916.92,668.14,919.92,665.07Z"/><path class="cls-2" d="M960.72,662.82v3.82h-6.46v17.77h-4.55V666.64h-6.49v-3.82Z"/><path class="cls-2" d="M968.85,662.82h4.59v13.26a7.56,7.56,0,0,0,.52,3.25c.55,1.21,1.73,1.81,3.56,1.81s3-.6,3.55-1.81a7.53,7.53,0,0,0,.53-3.25V662.82h4.58v13.27a11.17,11.17,0,0,1-1.06,5.36c-1.33,2.34-3.86,3.52-7.6,3.52s-6.27-1.18-7.6-3.52a11.16,11.16,0,0,1-1.07-5.36Z"/><path class="cls-2" d="M1009.85,663.37a5.52,5.52,0,0,1,2,1.51,6.69,6.69,0,0,1,1.08,1.82,6,6,0,0,1,.4,2.27,6.55,6.55,0,0,1-.77,3,4.34,4.34,0,0,1-2.57,2.11,4.07,4.07,0,0,1,2.12,1.7,7.2,7.2,0,0,1,.62,3.38v1.45a10.91,10.91,0,0,0,.12,2,1.85,1.85,0,0,0,.83,1.23v.54h-5c-.13-.48-.23-.87-.29-1.16a10.29,10.29,0,0,1-.19-1.86l0-2a4.13,4.13,0,0,0-.71-2.75,3.66,3.66,0,0,0-2.58-.69h-4.4v8.47h-4.41V662.82h10.33A9.44,9.44,0,0,1,1009.85,663.37Zm-9.32,3.2v5.8h4.85a5.22,5.22,0,0,0,2.17-.35,2.43,2.43,0,0,0,1.29-2.44,2.73,2.73,0,0,0-1.24-2.63,4.42,4.42,0,0,0-2.09-.38Z"/><path class="cls-2" d="M1027.3,684.41h-4.49V662.82h4.49Z"/><path class="cls-2" d="M1036.93,662.82h4.74l8.57,15v-15h4.21v21.59h-4.52l-8.79-15.32v15.32h-4.21Z"/><path class="cls-2" d="M1078.69,669.56a4.23,4.23,0,0,0-2.5-3.1,6.2,6.2,0,0,0-2.48-.48,5.36,5.36,0,0,0-4.28,2q-1.68,2-1.68,5.91c0,2.65.6,4.53,1.82,5.63a6,6,0,0,0,4.13,1.65,5.36,5.36,0,0,0,3.72-1.3,5.65,5.65,0,0,0,1.79-3.41h-5v-3.61h9v11.59h-3l-.46-2.7a10.49,10.49,0,0,1-2.34,2.16,8.28,8.28,0,0,1-4.4,1.1,9.12,9.12,0,0,1-7-3q-2.87-3-2.86-8.17a12,12,0,0,1,2.89-8.4,9.83,9.83,0,0,1,7.63-3.16,10,10,0,0,1,6.62,2.09,7.76,7.76,0,0,1,2.86,5.21Z"/><rect class="cls-1" x="1364.99" width="1365.18" height="768"/></svg>