<svg id="Layer_1" data-name="Layer 1" xmlns="http://www.w3.org/2000/svg" xmlns:xlink="http://www.w3.org/1999/xlink" viewBox="0 0 1366 768"><defs><style>.cls-1{fill:url(#linear-gradient);}.cls-2{fill:none;}.cls-3{opacity:0.57;}</style><linearGradient id="linear-gradient" x1="676.94" y1="479.96" x2="676.94" y2="71.48" gradientUnits="userSpaceOnUse"><stop offset="0" stop-color="#fff"/><stop offset="0" stop-color="#fefefe"/><stop offset="0" stop-color="#eee"/><stop offset="0" stop-color="#d8d8d8"/><stop offset="0" stop-color="#c7c7c7"/><stop offset="0" stop-color="#bcbcbc"/><stop offset="0" stop-color="#b5b5b5"/><stop offset="0" stop-color="#b3b3b3"/><stop offset="0"/><stop offset="0.1" stop-color="#040200"/><stop offset="0.19" stop-color="#0f0600"/><stop offset="0.28" stop-color="#220e00"/><stop offset="0.37" stop-color="#3d1a00"/><stop offset="0.46" stop-color="#602800"/><stop offset="0.54" stop-color="#8b3a00"/><stop offset="0.63" stop-color="#bc4e00"/><stop offset="0.65" stop-color="#c50"/><stop offset="1" stop-color="#c50"/></linearGradient></defs><path class="cls-1" d="M1005.23,470.1,881,406.81,676.94,71.48,472.88,406.81,348.66,470.1a1.76,1.76,0,0,0-1,1.56,1.87,1.87,0,0,0,1.93,1.79,2,2,0,0,0,.86-.19l122.05-56.18L590,480l86.9-42.3L763.85,480l117.53-62.88,122,56.18a1.93,1.93,0,0,0,2.79-1.6A1.77,1.77,0,0,0,1005.23,470.1ZM866.6,399.47,738.71,334.3,732.16,331l-6.36-3.24-26.39-13.45c-9-4.57-14.55-13.28-14.55-22.74V248.71a25.06,25.06,0,0,1,8.5-18.61l10.33-9.29,3-2.75,3-2.68,29-26.08ZM737.9,188l-30.32,18.65L679.76,92.43Zm-36.37,22.37-24.59,15.12-24.58-15.12,24.58-118.9ZM674.13,92.43,646.31,206.62,616,188Zm-59,96.87,29,26.08,3,2.68,3.05,2.75,10.33,9.29a25.06,25.06,0,0,1,8.5,18.61v42.82c0,9.46-5.58,18.17-14.55,22.74l-26.39,13.45L621.73,331l-6.55,3.34L487.29,399.47ZM582.87,466.88,481.79,412.81l128.69-59.23Zm94.07-38.27-77.51,37.73,24.6-119L676.94,323l52.91,24.35,24.61,119ZM771,466.88l-27.61-113.3L872.1,412.81Z"/><line class="cls-2" x1="1128.14" y1="340.14" x2="1127.84" y2="340.63"/><polygon points="721.36 575.92 721.36 576.37 721.35 576.36 721.35 575.93 721.36 575.92"/><polygon points="721.36 575.92 721.36 576.37 721.35 576.36 721.35 575.91 721.36 575.92"/><polygon class="cls-3" points="707.99 632.26 707.81 632.17 708.04 632.06 707.99 632.26"/><path d="M292.64,579.14h23.62q7,0,11.29,4t4.29,11.1a16.14,16.14,0,0,1-3.82,10.7q-3.82,4.56-11.76,4.56H299.75v22.18h-7.11Zm27.73,7.22a15.44,15.44,0,0,0-6.46-1.11H299.75v18.19h14.16a13.58,13.58,0,0,0,7.77-2q3-2,3-7.19Q324.66,588.43,320.37,586.36Z"/><path d="M401.29,579.14h7.19v52.49h-7.19Z"/><path d="M478.93,579.14h8.39l26.52,42.52V579.14h6.75v52.49h-8l-26.9-42.48v42.48h-6.79Z"/><path d="M590.69,579.14h8.39l26.52,42.52V579.14h6.75v52.49h-8l-26.91-42.48v42.48h-6.78Z"/><path d="M847.75,583a18.58,18.58,0,0,1,6.12,11.93h-6.94a14.39,14.39,0,0,0-4.7-8q-3.51-3-9.88-3a15.81,15.81,0,0,0-12.52,5.45q-4.77,5.45-4.77,16.7,0,9.23,4.31,15t12.84,5.74q7.86,0,12-6a23,23,0,0,0,3.25-8.36h6.94a23.67,23.67,0,0,1-6.15,13.9Q842,633,831.35,633A22.2,22.2,0,0,1,816,627.45q-8.19-7.32-8.18-22.61,0-11.62,6.14-19.05,6.64-8.07,18.33-8.08Q842.25,577.71,847.75,583Z"/><path d="M921.92,579.14H929v46.24h26.59v6.25h-33.7Z"/><path d="M1022.21,579.14h38.27v6.44h-31.34v15.93h29v6.08h-29v17.79H1061v6.25h-38.81Z"/><path d="M754.15,629.84l-2.68,1.43-13.42,7.19-.57.3-.75.4-.84.45-.32.18-.2.11-.37.19-3.16-1.53-.4-.19-.91-.45-1.52-.74-1.78-.87h0l-4.45-2.18-.7-.34-.71-.36h0l-.71.36-.7.34-4.45,2.18h0l-1.78.87-1.52.74-.91.45-.4.19-3.16,1.53-.37-.19-.2-.11-.32-.18-.84-.45-.75-.4-.57-.3-13.42-7.19-2.68-1.43,3.69-6.06,29.1-47.85v.43h0l-3.67,8.13L713,595l-.21.47L700.37,623l-1.22,2.7-.67,1.49,9.33,5,.18.09,0-.2,2.63-1.29,10.68-5.24h0L732,630.77l2.63,1.29.05.2.18-.09,9.33-5-.67-1.49-1.22-2.7-12.4-27.53-.21-.47L725,584.5l-3.66-8.13v-.44l29.1,47.85Z"/><line x1="698.48" y1="627.14" x2="698.4" y2="627.32"/><line class="cls-2" x1="721.59" y1="575.85" x2="721.36" y2="576.36"/><path d="M305.3,665.61a7.18,7.18,0,0,1,3.68,2.74,9.65,9.65,0,0,1,1.54,3.49,16.94,16.94,0,0,1,.41,3.57,14.37,14.37,0,0,1-1.73,7.3,7.82,7.82,0,0,1-7.24,4h-9.32V665.15H302A11.49,11.49,0,0,1,305.3,665.61ZM297,668.9V683h4.16a4.51,4.51,0,0,0,4.47-3.15,11.1,11.1,0,0,0,.69-4.12,10.11,10.11,0,0,0-1-5.06c-.69-1.18-2.06-1.76-4.12-1.76Z"/><path d="M335.78,669H324.35v4.58h10.49v3.75H324.35v5.56h12v3.88H319.94V665.15h15.84Z"/><path d="M348.57,680.07a4.32,4.32,0,0,0,.82,2.21c.75.89,2,1.34,3.85,1.34a8.41,8.41,0,0,0,2.65-.35,2.53,2.53,0,0,0,1.93-2.51,1.84,1.84,0,0,0-.95-1.65,10.15,10.15,0,0,0-3-1l-2.34-.51a14.82,14.82,0,0,1-4.73-1.65,5.27,5.27,0,0,1-2.19-4.68,6.23,6.23,0,0,1,2.14-4.82c1.42-1.27,3.52-1.91,6.27-1.91a9.6,9.6,0,0,1,5.9,1.81,6.41,6.41,0,0,1,2.56,5.25h-4.34a3.08,3.08,0,0,0-1.74-2.77,6,6,0,0,0-2.69-.54,5.1,5.1,0,0,0-2.85.7,2.23,2.23,0,0,0-1.07,2,1.85,1.85,0,0,0,1,1.73,13.3,13.3,0,0,0,2.87.89l3.79.9a9.74,9.74,0,0,1,3.74,1.56,5.31,5.31,0,0,1,1.93,4.41,6.19,6.19,0,0,1-2.29,4.92,9.68,9.68,0,0,1-6.46,1.95,10.58,10.58,0,0,1-6.71-1.92,6.39,6.39,0,0,1-2.45-5.3Z"/><path d="M374.94,686.74h-4.48V665.15h4.48Z"/><path d="M399.18,671.88a4.24,4.24,0,0,0-2.51-3.09,6.2,6.2,0,0,0-2.48-.48,5.36,5.36,0,0,0-4.28,2q-1.68,2-1.68,5.91t1.82,5.63a6,6,0,0,0,4.13,1.65,5.34,5.34,0,0,0,3.72-1.3,5.6,5.6,0,0,0,1.79-3.42h-5v-3.6h9v11.59h-3l-.45-2.7a10.3,10.3,0,0,1-2.35,2.16,8.24,8.24,0,0,1-4.39,1.09,9.15,9.15,0,0,1-7-3q-2.85-3-2.85-8.17a12,12,0,0,1,2.88-8.4,11.11,11.11,0,0,1,14.25-1.07,7.75,7.75,0,0,1,2.87,5.2Z"/><path d="M413.42,665.15h4.73l8.57,15.05V665.15h4.21v21.59h-4.51l-8.8-15.32v15.32h-4.2Z"/><path d="M457.74,680.07a4.32,4.32,0,0,0,.82,2.21c.75.89,2,1.34,3.85,1.34a8.35,8.35,0,0,0,2.64-.35,2.52,2.52,0,0,0,1.93-2.51,1.84,1.84,0,0,0-.94-1.65,10.15,10.15,0,0,0-3-1l-2.34-.51a14.62,14.62,0,0,1-4.73-1.65,5.27,5.27,0,0,1-2.19-4.68,6.2,6.2,0,0,1,2.14-4.82q2.13-1.9,6.27-1.91a9.6,9.6,0,0,1,5.9,1.81,6.41,6.41,0,0,1,2.56,5.25h-4.34a3.08,3.08,0,0,0-1.74-2.77,6,6,0,0,0-2.69-.54,5.15,5.15,0,0,0-2.86.7,2.22,2.22,0,0,0-1.06,2,1.85,1.85,0,0,0,1.05,1.73,13.3,13.3,0,0,0,2.87.89l3.79.9a9.74,9.74,0,0,1,3.74,1.56,5.31,5.31,0,0,1,1.93,4.41,6.22,6.22,0,0,1-2.29,4.92,9.69,9.69,0,0,1-6.47,1.95,10.6,10.6,0,0,1-6.71-1.92,6.38,6.38,0,0,1-2.44-5.3Z"/><path d="M496.63,684.82q-2.46,2.52-7.08,2.52t-7.08-2.52q-3.29-3.09-3.28-8.91t3.28-8.9q2.44-2.52,7.08-2.52t7.08,2.52q3.25,3,3.26,8.9T496.63,684.82Zm-2.83-3.28a10.8,10.8,0,0,0,0-11.25,5.14,5.14,0,0,0-4.25-2,5.21,5.21,0,0,0-4.28,2,10.69,10.69,0,0,0,0,11.25,5.2,5.2,0,0,0,4.28,2A5.13,5.13,0,0,0,493.8,681.54Z"/><path d="M508.83,665.15h4.51v17.71h10.79v3.88h-15.3Z"/><path d="M532.65,665.15h4.59v13.26a7.56,7.56,0,0,0,.52,3.25c.55,1.21,1.74,1.81,3.57,1.81s3-.6,3.54-1.81a7.38,7.38,0,0,0,.53-3.25V665.15H550v13.27a11.16,11.16,0,0,1-1.07,5.36q-2,3.51-7.59,3.51c-3.74,0-6.27-1.17-7.61-3.51a11.16,11.16,0,0,1-1.07-5.36Z"/><path d="M575.51,665.15V669h-6.46v17.77h-4.54V669H558v-3.82Z"/><path d="M587.76,686.74h-4.49V665.15h4.49Z"/><path d="M614.1,684.82q-2.45,2.52-7.08,2.52T600,684.82q-3.29-3.09-3.29-8.91T600,667q2.44-2.52,7.07-2.52T614.1,667q3.27,3,3.27,8.9T614.1,684.82Zm-2.82-3.28a10.8,10.8,0,0,0,0-11.25,5.58,5.58,0,0,0-8.53,0,10.69,10.69,0,0,0,0,11.25,5.6,5.6,0,0,0,8.53,0Z"/><path d="M626.23,665.15H631l8.58,15.05V665.15h4.2v21.59h-4.51l-8.79-15.32v15.32h-4.21Z"/><path d="M656.72,680.07a4.41,4.41,0,0,0,.82,2.21c.75.89,2,1.34,3.85,1.34a8.41,8.41,0,0,0,2.65-.35,2.53,2.53,0,0,0,1.93-2.51,1.84,1.84,0,0,0-1-1.65,10.15,10.15,0,0,0-3-1l-2.33-.51a14.8,14.8,0,0,1-4.74-1.65,5.27,5.27,0,0,1-2.18-4.68,6.22,6.22,0,0,1,2.13-4.82q2.15-1.9,6.28-1.91a9.57,9.57,0,0,1,5.89,1.81,6.41,6.41,0,0,1,2.56,5.25h-4.34a3.08,3.08,0,0,0-1.74-2.77,6,6,0,0,0-2.69-.54,5.1,5.1,0,0,0-2.85.7,2.23,2.23,0,0,0-1.07,2,1.85,1.85,0,0,0,1,1.73,13.3,13.3,0,0,0,2.87.89l3.79.9a9.67,9.67,0,0,1,3.74,1.56,5.29,5.29,0,0,1,1.93,4.41,6.19,6.19,0,0,1-2.29,4.92,9.66,9.66,0,0,1-6.46,1.95,10.58,10.58,0,0,1-6.71-1.92,6.39,6.39,0,0,1-2.45-5.3Z"/><path d="M693.12,677.71a10.55,10.55,0,0,1,3.16-2.75l.45-.28a9.19,9.19,0,0,1-1.45-2.16,5.34,5.34,0,0,1-.51-2.28,4.51,4.51,0,0,1,1.6-3.69,6.27,6.27,0,0,1,4.16-1.33,5.52,5.52,0,0,1,3.84,1.36,4.41,4.41,0,0,1,1.52,3.47,4.92,4.92,0,0,1-.91,3.1,8.94,8.94,0,0,1-2.67,2.21l3.1,3.76a6,6,0,0,0,.82-1.66,6.12,6.12,0,0,0,.31-1.88h3.71a11.8,11.8,0,0,1-1,4,11.25,11.25,0,0,1-1.51,2.49l3.92,4.69h-5.06l-1.5-1.83a9,9,0,0,1-2,1.5,8.35,8.35,0,0,1-3.89.87,6.93,6.93,0,0,1-5.19-1.93,6.08,6.08,0,0,1-1.86-4.3A5.67,5.67,0,0,1,693.12,677.71Zm4.08,5.17a3.05,3.05,0,0,0,2.27.9,4.37,4.37,0,0,0,2-.47,6.25,6.25,0,0,0,1.51-1l-4-4.92a7.19,7.19,0,0,0-2.1,1.83,3.17,3.17,0,0,0-.51,1.75A2.74,2.74,0,0,0,697.2,682.88ZM699,671.32a17,17,0,0,0,1.18,1.51,8.33,8.33,0,0,0,1.31-1,2.43,2.43,0,0,0,.76-1.72,1.75,1.75,0,0,0-.46-1.2,1.69,1.69,0,0,0-1.38-.53,2,2,0,0,0-1.08.31,1.54,1.54,0,0,0-.76,1.44A2.21,2.21,0,0,0,699,671.32Z"/><path d="M748.13,665.15h6.49v21.59h-4.2V672.13c0-.42,0-1,0-1.76s0-1.34,0-1.75l-4.1,18.12H742l-4.07-18.12c0,.41,0,1,0,1.75s0,1.34,0,1.76v14.61h-4.2V665.15h6.57l3.93,17Z"/><path d="M770.47,665.15h5.11l7.64,21.59h-4.9l-1.42-4.44h-8l-1.46,4.44h-4.72Zm-.3,13.43h5.53l-2.72-8.5Z"/><path d="M791.38,665.15h4.74l8.57,15.05V665.15h4.2v21.59h-4.51l-8.79-15.32v15.32h-4.21Z"/><path d="M818.62,665.15h4.59v13.26a7.56,7.56,0,0,0,.52,3.25c.55,1.21,1.74,1.81,3.57,1.81s3-.6,3.54-1.81a7.53,7.53,0,0,0,.53-3.25V665.15H836v13.27a11.16,11.16,0,0,1-1.07,5.36q-2,3.51-7.59,3.51c-3.74,0-6.27-1.17-7.61-3.51a11.16,11.16,0,0,1-1.07-5.36Z"/><path d="M845.79,665.17h15.4V669H850.27v5h9.57v3.75h-9.57v9.06h-4.48Z"/><path d="M874.14,665.15h5.11l7.64,21.59H882l-1.43-4.44h-8l-1.47,4.44h-4.72Zm-.29,13.43h5.53l-2.73-8.5Z"/><path d="M897.2,667.4a8.88,8.88,0,0,1,6.64-2.66q5.38,0,7.88,3.57a7.8,7.8,0,0,1,1.48,4h-4.51a6.2,6.2,0,0,0-1.11-2.35,4.91,4.91,0,0,0-7.38.58,9.71,9.71,0,0,0-1.39,5.62,8.49,8.49,0,0,0,1.47,5.44,4.59,4.59,0,0,0,3.73,1.81,4.27,4.27,0,0,0,3.55-1.55,6.87,6.87,0,0,0,1.11-2.51h4.49a9.77,9.77,0,0,1-3,5.75,8.64,8.64,0,0,1-6.11,2.21,9.19,9.19,0,0,1-7.25-3c-1.76-2-2.63-4.75-2.63-8.23Q894.2,670.47,897.2,667.4Z"/><path d="M938,665.15V669h-6.46v17.77H927V669H920.5v-3.82Z"/><path d="M946.12,665.15h4.59v13.26a7.56,7.56,0,0,0,.52,3.25c.55,1.21,1.74,1.81,3.57,1.81s3-.6,3.54-1.81a7.53,7.53,0,0,0,.53-3.25V665.15h4.59v13.27a11.16,11.16,0,0,1-1.07,5.36q-2,3.51-7.59,3.51c-3.74,0-6.27-1.17-7.61-3.51a11.16,11.16,0,0,1-1.07-5.36Z"/><path d="M987.13,665.7a5.38,5.38,0,0,1,2,1.51,6.44,6.44,0,0,1,1.08,1.82,6,6,0,0,1,.4,2.27,6.42,6.42,0,0,1-.77,3,4.34,4.34,0,0,1-2.57,2.1,4,4,0,0,1,2.12,1.71,7.05,7.05,0,0,1,.62,3.38V683a10.78,10.78,0,0,0,.12,2,1.83,1.83,0,0,0,.84,1.24v.54h-5c-.13-.48-.23-.87-.29-1.16a10.47,10.47,0,0,1-.19-1.86l0-2a4.13,4.13,0,0,0-.71-2.75,3.65,3.65,0,0,0-2.57-.69H977.8v8.47h-4.41V665.15h10.33A9.29,9.29,0,0,1,987.13,665.7Zm-9.33,3.2v5.8h4.86a5.1,5.1,0,0,0,2.17-.36,2.43,2.43,0,0,0,1.28-2.43,2.72,2.72,0,0,0-1.24-2.63,4.42,4.42,0,0,0-2.09-.38Z"/><path d="M1004.57,686.74h-4.49V665.15h4.49Z"/><path d="M1014.21,665.15h4.73l8.57,15.05V665.15h4.21v21.59h-4.51l-8.8-15.32v15.32h-4.2Z"/><path d="M1056,671.88a4.26,4.26,0,0,0-2.51-3.09,6.2,6.2,0,0,0-2.48-.48,5.36,5.36,0,0,0-4.28,2q-1.68,2-1.68,5.91t1.82,5.63a6,6,0,0,0,4.13,1.65,5.36,5.36,0,0,0,3.72-1.3,5.65,5.65,0,0,0,1.79-3.42h-5v-3.6h9v11.59h-3L1057,684a10.51,10.51,0,0,1-2.35,2.16,8.26,8.26,0,0,1-4.39,1.09,9.15,9.15,0,0,1-7-3,11.34,11.34,0,0,1-2.86-8.17,12,12,0,0,1,2.89-8.4,11.11,11.11,0,0,1,14.25-1.07,7.75,7.75,0,0,1,2.87,5.2Z"/></svg>