<svg id="Layer_1" data-name="Layer 1" xmlns="http://www.w3.org/2000/svg" xmlns:xlink="http://www.w3.org/1999/xlink" viewBox="340 70 665 410">
  <defs>
    <linearGradient id="linear-gradient" x1="676.94" y1="480" x2="676.94" y2="70" gradientUnits="userSpaceOnUse">
      <stop offset="0" stop-color="#f97316"/>
      <stop offset="1" stop-color="#ffffff"/>
    </linearGradient>
    <style>.cls-1{fill:url(#linear-gradient);}.cls-2{fill:none;}.cls-3{opacity:0.57;}</style>
  </defs>
  <path class="cls-1" d="M1005.23,470.1,881,406.81,676.94,71.48,472.88,406.81,348.66,470.1a1.76,1.76,0,0,0-1,1.56,1.87,1.87,0,0,0,1.93,1.79,2,2,0,0,0,.86-.19l122.05-56.18L590,480l86.9-42.3L763.85,480l117.53-62.88,122,56.18a1.93,1.93,0,0,0,2.79-1.6A1.77,1.77,0,0,0,1005.23,470.1ZM866.6,399.47,738.71,334.3,732.16,331l-6.36-3.24-26.39-13.45c-9-4.57-14.55-13.28-14.55-22.74V248.71a25.06,25.06,0,0,1,8.5-18.61l10.33-9.29,3-2.75,3-2.68,29-26.08ZM737.9,188l-30.32,18.65L679.76,92.43Zm-36.37,22.37-24.59,15.12-24.58-15.12,24.58-118.9ZM674.13,92.43,646.31,206.62,616,188Zm-59,96.87,29,26.08,3,2.68,3.05,2.75,10.33,9.29a25.06,25.06,0,0,1,8.5,18.61v42.82c0,9.46-5.58,18.17-14.55,22.74l-26.39,13.45L621.73,331l-6.55,3.34L487.29,399.47ZM582.87,466.88,481.79,412.81l128.69-59.23Zm94.07-38.27-77.51,37.73,24.6-119L676.94,323l52.91,24.35,24.61,119ZM771,466.88l-27.61-113.3L872.1,412.81Z"/>
</svg>