<svg id="Layer_1" xmlns="http://www.w3.org/2000/svg" viewBox="350 50 680 430">
  <defs>
    <linearGradient id="logoGradient" x1="0%" y1="0%" x2="0%" y2="100%">
      <stop offset="0%" style="stop-color:#f97316;stop-opacity:1" />
      <stop offset="100%" style="stop-color:#431407;stop-opacity:1" />
    </linearGradient>
    <filter id="glow" x="-20%" y="-20%" width="140%" height="140%">
      <feGaussianBlur stdDeviation="3" result="blur" />
      <feComposite in="SourceGraphic" in2="blur" operator="over" />
    </filter>
  </defs>
  <path fill="url(#logoGradient)" filter="url(#glow)" d="M1028.37,467.77,904.15,404.48,700.08,69.15,496,404.48,371.8,467.77a1.76,1.76,0,0,0-1,1.56,1.87,1.87,0,0,0,1.93,1.79,2,2,0,0,0,.86-.19l122-56.18,117.53,62.88,86.9-42.3L787,477.63l117.53-62.88,122,56.18a1.93,1.93,0,0,0,2.79-1.6A1.77,1.77,0,0,0,1028.37,467.77ZM889.74,397.14,761.85,332l-6.55-3.34-6.36-3.24-26.39-13.45c-9-4.57-14.55-13.28-14.55-22.74V246.38a25.06,25.06,0,0,1,8.5-18.61l10.33-9.29,3-2.75,3-2.68,29-26.08ZM761,185.64l-30.32,18.65L702.9,90.1ZM724.67,208l-24.59,15.12L675.5,208l24.58-118.9ZM697.27,90.1,669.45,204.29l-30.32-18.65ZM638.32,187l29,26.08,3,2.68,3.05,2.75,10.33,9.29a25.06,25.06,0,0,1,8.5,18.61V289.2c0,9.46-5.58,18.17-14.55,22.74l-26.39,13.45-6.36,3.24L638.32,332,510.43,397.14ZM606,464.55,504.93,410.48l128.69-59.23Zm94.07-38.27L622.57,464l24.6-119,52.91-24.35L753,345,777.6,464Zm94.08,38.27-27.61-113.3,128.69,59.23Z"/>
</svg>