<svg id="Layer_1" data-name="Layer 1" xmlns="http://www.w3.org/2000/svg" xmlns:xlink="http://www.w3.org/1999/xlink" viewBox="292 71 770 616">
  <defs>
    <linearGradient id="linear-gradient" x1="676.94" y1="686" x2="676.94" y2="71" gradientUnits="userSpaceOnUse">
      <stop offset="0" stop-color="#f97316"/>
      <stop offset="1" stop-color="#ffffff"/>
    </linearGradient>
    <style>.cls-1{fill:url(#linear-gradient);}.cls-2{fill:none;}.cls-3{opacity:0.57;}</style>
  </defs>
  <path class="cls-1" d="M1005.23,470.1,881,406.81,676.94,71.48,472.88,406.81,348.66,470.1a1.76,1.76,0,0,0-1,1.56,1.87,1.87,0,0,0,1.93,1.79,2,2,0,0,0,.86-.19l122.05-56.18L590,480l86.9-42.3L763.85,480l117.53-62.88,122,56.18a1.93,1.93,0,0,0,2.79-1.6A1.77,1.77,0,0,0,1005.23,470.1ZM866.6,399.47,738.71,334.3,732.16,331l-6.36-3.24-26.39-13.45c-9-4.57-14.55-13.28-14.55-22.74V248.71a25.06,25.06,0,0,1,8.5-18.61l10.33-9.29,3-2.75,3-2.68,29-26.08ZM737.9,188l-30.32,18.65L679.76,92.43Zm-36.37,22.37-24.59,15.12-24.58-15.12,24.58-118.9ZM674.13,92.43,646.31,206.62,616,188Zm-59,96.87,29,26.08,3,2.68,3.05,2.75,10.33,9.29a25.06,25.06,0,0,1,8.5,18.61v42.82c0,9.46-5.58,18.17-14.55,22.74l-26.39,13.45L621.73,331l-6.55,3.34L487.29,399.47ZM582.87,466.88,481.79,412.81l128.69-59.23Zm94.07-38.27-77.51,37.73,24.6-119L676.94,323l52.91,24.35,24.61,119ZM771,466.88l-27.61-113.3L872.1,412.81Z"/>
  <path d="M292.64,579.14h23.62q7,0,11.29,4t4.29,11.1a16.14,16.14,0,0,1-3.82,10.7q-3.82,4.56-11.76,4.56H299.75v22.18h-7.11Zm27.73,7.22a15.44,15.44,0,0,0-6.46-1.11H299.75v18.19h14.16a13.58,13.58,0,0,0,7.77-2q3-2,3-7.19Q324.66,588.43,320.37,586.36Z" fill="#ffffff"/>
  <path d="M401.29,579.14h7.19v52.49h-7.19Z" fill="#ffffff"/>
  <path d="M478.93,579.14h8.39l26.52,42.52V579.14h6.75v52.49h-8l-26.9-42.48v42.48h-6.79Z" fill="#ffffff"/>
  <path d="M590.69,579.14h8.39l26.52,42.52V579.14h6.75v52.49h-8l-26.91-42.48v42.48h-6.78Z" fill="#ffffff"/>
  <path d="M847.75,583a18.58,18.58,0,0,1,6.12,11.93h-6.94a14.39,14.39,0,0,0-4.7-8q-3.51-3-9.88-3a15.81,15.81,0,0,0-12.52,5.45q-4.77,5.45-4.77,16.7,0,9.23,4.31,15t12.84,5.74q7.86,0,12-6a23,23,0,0,0,3.25-8.36h6.94a23.67,23.67,0,0,1-6.15,13.9Q842,633,831.35,633A22.2,22.2,0,0,1,816,627.45q-8.19-7.32-8.18-22.61,0-11.62,6.14-19.05,6.64-8.07,18.33-8.08Q842.25,577.71,847.75,583Z" fill="#ffffff"/>
  <path d="M921.92,579.14H929v46.24h26.59v6.25h-33.7Z" fill="#ffffff"/>
  <path d="M1022.21,579.14h38.27v6.44h-31.34v15.93h29v6.08h-29v17.79H1061v6.25h-38.81Z" fill="#ffffff"/>
  <path d="M754.15,629.84l-2.68,1.43-13.42,7.19-.57.3-.75.4-.84.45-.32.18-.2.11-.37.19-3.16-1.53-.4-.19-.91-.45-1.52-.74-1.78-.87h0l-4.45-2.18-.7-.34-.71-.36h0l-.71.36-.7.34-4.45,2.18h0l-1.78.87-1.52.74-.91.45-.4.19-3.16,1.53-.37-.19-.2-.11-.32-.18-.84-.45-.75-.4-.57-.3-13.42-7.19-2.68-1.43,3.69-6.06,29.1-47.85v.43h0l-3.67,8.13-4.71,10.45-.21.47-12.4,27.53-1.22,2.7-.67,1.49,9.33,5,.18.09,0-.2,2.63-1.29,10.68-5.24h0L732,630.77l2.63,1.29.05.2.18-.09,9.33-5-.67-1.49-1.22-2.7-12.4-27.53-.21-.47-4.71-10.45L725,584.5l-3.66-8.13v-.44l29.1,47.85Z" fill="#ffffff"/>
</svg>