<?xml version="1.0" encoding="utf-8"?>
<!-- Generator: Adobe Illustrator 25.4.1, SVG Export Plug-In . SVG Version: 6.00 Build 0)  -->
<svg version="1.1"
	 id="svg2" xmlns:inkscape="http://www.inkscape.org/namespaces/inkscape" xmlns:sodipodi="http://sodipodi.sourceforge.net/DTD/sodipodi-0.dtd" xmlns:svg="http://www.w3.org/2000/svg"
	 xmlns="http://www.w3.org/2000/svg" xmlns:xlink="http://www.w3.org/1999/xlink" x="0px" y="0px" viewBox="0 0 142.4 80"
	 style="enable-background:new 0 0 142.4 80;" xml:space="preserve">
<style type="text/css">
	.st0{fill-rule:evenodd;clip-rule:evenodd;fill:#3E4140;}
	.st1{fill-rule:evenodd;clip-rule:evenodd;fill:#E94E1A;}
	.st2{fill-rule:evenodd;clip-rule:evenodd;fill:#259A3A;}
	.st3{fill-rule:evenodd;clip-rule:evenodd;fill:#1D57A6;}
</style>
<sodipodi:namedview  bordercolor="#000000" borderopacity="0.25" id="namedview4" inkscape:deskcolor="#d1d1d1" inkscape:pagecheckerboard="0" inkscape:pageopacity="0.0" inkscape:showpageshadow="2" pagecolor="#ffffff">
	</sodipodi:namedview>
<g id="g8" transform="matrix(1.3333333,0,0,-1.3333333,0,78.666667)" inkscape:groupmode="layer" inkscape:label="ink_ext_XXXXXX">
	<g id="g10" transform="scale(0.1)">
		<path id="path12" class="st0" d="M493.4,126.1V176h15.8c4.8,0,8.6-1.3,11.4-3.9c2.8-2.6,4.2-6,4.2-10.3c0-2.9-0.7-5.5-2.2-7.7
			c-1.5-2.2-3.4-3.9-6-4.9c-2.5-1-6.2-1.5-10.9-1.5h-5.3v-21.6L493.4,126.1z M508,169.7h-7.4v-15.6h7.8c2.9,0,5.1,0.7,6.7,2.1
			c1.6,1.4,2.4,3.3,2.4,5.9C517.5,167.1,514.3,169.7,508,169.7z M544.1,159.1c5,0,9.2-1.6,12.5-4.8c3.3-3.2,5-7.3,5-12.2
			c0-4.7-1.7-8.7-5-11.8c-3.4-3.1-7.6-4.7-12.7-4.7c-4.9,0-9,1.6-12.4,4.8c-3.3,3.2-5,7.2-5,11.9c0,4.8,1.7,8.8,5,12
			C534.9,157.5,539.1,159.1,544.1,159.1z M543.8,153.2c-3.1,0-5.7-1-7.7-3.1c-2-2.1-3-4.7-3-7.8c0-3.1,1-5.7,3.1-7.7
			c2-2,4.7-3,7.9-3c3.2,0,5.8,1,7.8,3c2,2,3.1,4.6,3.1,7.7c0,3.1-1.1,5.7-3.2,7.8C549.7,152.2,547,153.2,543.8,153.2z M609.1,159h7
			l-14.5-33.4h-2.2l-9.7,22.9l-9.6-22.9H578L563.4,159h7l8.6-19.9l8.4,19.9h4.8l8.3-19.9L609.1,159z M647.2,142.1h-23.1
			c0.2-3.2,1.2-5.7,3.2-7.6c1.9-1.9,4.5-2.8,7.5-2.8c4.3,0,8.2,1.3,11.9,3.9v-6.3c-2-1.3-4-2.3-6-2.8c-2-0.6-4.3-0.9-6.9-0.9
			c-3.6,0-6.5,0.8-8.8,2.3c-2.2,1.5-4,3.5-5.4,6.1c-1.4,2.5-2,5.5-2,8.8c0,5,1.4,9.1,4.3,12.2c2.8,3.1,6.5,4.7,11,4.7
			c4.4,0,7.8-1.5,10.4-4.6c2.6-3,3.9-7.1,3.9-12.2V142.1z M624.3,146h16.5c-0.2,2.6-0.9,4.6-2.3,6c-1.4,1.4-3.2,2.1-5.6,2.1
			c-2.3,0-4.2-0.7-5.7-2.1C625.7,150.6,624.7,148.6,624.3,146z M661.2,159v-7.5l0.4,0.6c3.1,5.1,6.3,7.6,9.4,7.6
			c2.5,0,5-1.2,7.7-3.7l-3.4-5.7c-2.3,2.1-4.4,3.2-6.3,3.2c-2.1,0-3.9-1-5.5-3c-1.5-2-2.3-4.4-2.3-7.1v-17.2h-6.5V159L661.2,159z
			 M691,176h41.7v-6.4h-17.4v-43.5h-7.2v43.5H691V176z M743.4,159.1c5,0,9.2-1.6,12.5-4.8c3.3-3.2,5-7.3,5-12.2
			c0-4.7-1.7-8.7-5-11.8c-3.3-3.1-7.6-4.7-12.7-4.7c-4.9,0-9.1,1.6-12.4,4.8c-3.3,3.2-5,7.2-5,11.9c0,4.8,1.7,8.8,5,12
			C734.1,157.5,738.3,159.1,743.4,159.1z M743,153.2c-3.1,0-5.7-1-7.7-3.1c-2-2.1-3-4.7-3-7.8c0-3.1,1-5.7,3.1-7.7c2-2,4.7-3,7.9-3
			c3.2,0,5.8,1,7.8,3c2,2,3.1,4.6,3.1,7.7c0,3.1-1.1,5.7-3.2,7.8C748.9,152.2,746.2,153.2,743,153.2z M789.2,176h28.3v-6.4h-21.1
			v-15.2h20.4v-6.4h-20.4v-15.6h21.8v-6.4h-29L789.2,176z M851.9,150v-23.9h-6.5v18.4c0,3.7-0.5,6.2-1.5,7.6c-1,1.5-2.7,2.2-5.1,2.2
			c-1.3,0-2.6-0.3-3.7-1c-1.1-0.6-2.4-1.7-3.9-3.4v-23.9h-6.5V159h6.5v-4.3c3.3,3.4,6.6,5,9.7,5c4.2,0,7.4-2,9.7-6
			c3.5,4,7.1,6,10.9,6c3.2,0,5.8-1.2,7.9-3.5c2.1-2.3,3.1-5.9,3.1-10.7v-19.4h-6.5v19.5c0,2.7-0.6,4.8-1.7,6.3
			c-1.1,1.5-2.7,2.2-4.8,2.2C856.7,154.2,854.2,152.8,851.9,150z M880.9,109.3V159h11.4c5.8,0,10.4-1.5,13.6-4.4
			c3.2-2.9,4.9-7,4.9-12.2c0-4.9-1.5-9-4.6-12.1c-3.1-3.2-6.9-4.8-11.7-4.8c-2.1,0-4.4,0.5-7,1.4v-17.6L880.9,109.3z M892.1,152.9
			h-4.6v-20.2c2-1,4.1-1.5,6.3-1.5c3,0,5.5,1.1,7.5,3.2c1.9,2.1,2.9,4.8,2.9,8.2c0,2.1-0.4,4-1.4,5.7c-0.9,1.6-2.2,2.8-3.7,3.6
			C897.5,152.6,895.2,152.9,892.1,152.9z M933.6,159.1c5,0,9.2-1.6,12.5-4.8c3.3-3.2,5-7.3,5-12.2c0-4.7-1.7-8.7-5-11.8
			c-3.4-3.1-7.6-4.7-12.7-4.7c-4.9,0-9,1.6-12.4,4.8c-3.3,3.2-5,7.2-5,11.9c0,4.8,1.7,8.8,5,12C924.4,157.5,928.6,159.1,933.6,159.1
			z M933.3,153.2c-3.1,0-5.7-1-7.7-3.1c-2-2.1-3-4.7-3-7.8c0-3.1,1-5.7,3.1-7.7c2.1-2,4.7-3,7.9-3c3.2,0,5.8,1,7.8,3
			c2,2,3.1,4.6,3.1,7.7c0,3.1-1.1,5.7-3.2,7.8C939.2,152.2,936.5,153.2,933.3,153.2z M998.6,159h7l-14.5-33.4H989l-9.7,22.9
			l-9.6-22.9h-2.2L953,159h7l8.6-19.9l8.4,19.9h4.9l8.3-19.9L998.6,159z M1036.8,142.1h-23.1c0.2-3.2,1.2-5.7,3.2-7.6
			c1.9-1.9,4.4-2.8,7.5-2.8c4.3,0,8.2,1.3,11.9,3.9v-6.3c-2-1.3-4-2.3-6-2.8c-2-0.6-4.3-0.9-6.9-0.9c-3.6,0-6.5,0.8-8.8,2.3
			c-2.2,1.5-4,3.5-5.4,6.1c-1.4,2.5-2,5.5-2,8.8c0,5,1.4,9.1,4.3,12.2c2.8,3.1,6.5,4.7,11,4.7c4.3,0,7.8-1.5,10.4-4.6
			c2.6-3,3.9-7.1,3.9-12.2L1036.8,142.1z M1013.8,146h16.5c-0.2,2.6-0.9,4.6-2.3,6c-1.4,1.4-3.3,2.1-5.6,2.1c-2.3,0-4.2-0.7-5.7-2.1
			C1015.2,150.6,1014.2,148.6,1013.8,146z M1050.7,159v-7.5l0.4,0.6c3.1,5.1,6.3,7.6,9.5,7.6c2.4,0,5-1.2,7.7-3.7l-3.4-5.7
			c-2.3,2.1-4.4,3.2-6.3,3.2c-2.1,0-3.9-1-5.4-3c-1.5-2-2.3-4.4-2.3-7.1v-17.2h-6.5V159L1050.7,159"/>
		<path id="path14" class="st1" d="M320.9,143.6l-13.7-23.9C281.7,77.6,239.7,31.4,194.4,9.9c-4.7-2.2-8.2-3.9-12.9-5.8
			c-3-1.2-11.7-4.3-13.5-5.6c92.8,19,161.5,60.4,218.9,129.7c47.6,57.5,96.5,150.9,89.6,256.4c-6.6,101.2-64,177.5-149.1,198.9
			c-91.1,22.9-159.8-18-209.3-83.7c-3.6-4.7-14.6-20.7-16.2-25.8c67,33.5,147.1,48.4,214.7-0.7c58.8-42.7,76.5-128.6,61.2-203.6
			c-8.9-43.5-26.3-76.7-48.3-113C327.6,153.7,321.7,146,320.9,143.6"/>
		<path id="path16" class="st2" d="M85.9,2.5c-6.3-4.5-30.7,3.2-37.1,4.3C61-1.8,86.2-8.7,104.4-9.7c27.8-1.6,40,3.2,63.6,8.2
			c1.8,1.3,10.5,4.4,13.5,5.6c4.7,1.9,8.2,3.6,12.9,5.8c45.3,21.5,87.3,67.7,112.8,109.9l13.7,23.9c1.6,4.8,5.1,11.2,7.3,16.3
			c18.2,42,31.6,89.6,27.5,136.3c-2.5,28-9.4,53-21.5,73.4c-39.6,66.8-123,91.6-194.8,59.9c-39.2-17.3-64-45.5-84.5-80.7
			c-2.8-4.9-5-10.6-7.6-14.7c3.1,0.5,12.4,6.3,16.7,8.4c19.1,9,37,15.6,58.9,19.2c56.2,9.2,115.4-9,144.2-57.3
			c13.5-22.7,17.3-55.4,14-86.4c-6-55.3-33.7-113.1-60.8-145.7c-6.4-7.8-17.4-20.3-25.1-26.9c-9.1-7.7-17.6-14.8-29.1-21.9
			C146.7,11.4,107.7-3.4,85.9,2.5"/>
		<path id="path18" class="st3" d="M48.9,6.8c6.3-1.1,30.8-8.8,37.1-4.3C75.3,5.7,69.6,11.4,65.5,21c-11.4,26.4-1.7,74.8,4.7,101
			c5.1,21,10.8,40.4,17.3,60.6l19.8,57.8l-78.1-0.2c-4.8-7.5-15.2-48.3-18.1-60.1C-2,125.9-16.2,32.4,48.9,6.8"/>
		<path id="path20" class="st3" d="M26.9,291.9l5.7-6.3c4,3.5,8,7.7,14.4,10.8c13.6,6.5,28.2,7.1,42.1,0.6c3.1-1.4,5.4-3,8.1-4.9
			c3.2-2.3,4.2-4.2,7.3-6.1l5.8,5.9c-2.9,4.5-10.7,9.9-16.9,13.1c-15.8,8-33.5,7.3-49.3,0.1C38.4,302.5,29.5,296.1,26.9,291.9"/>
		<path id="path22" class="st3" d="M37,280.9l5.9-6.6c5.9,3.2,18.5,17.6,39.7,7.8c6.2-2.9,6.6-4,10.6-7.8l6.9,7.7
			c-8.4,6-15.6,13.3-31.8,13.2C54.9,295.2,45.2,289.7,37,280.9"/>
		<path id="path24" class="st3" d="M48.3,269.6l6.4-5.1c0.7,0.5,1.1,0.8,1.6,1.2c3.4,2.4,7.4,4.2,11.9,4.3
			c8.8,0.2,10.7-3.7,16.3-6.5l4.3,6C79.7,281,57.1,282,48.3,269.6"/>
		<path id="path26" class="st3" d="M58.2,259.4L69.5,248l9.4,10.9C71.5,265.8,66.1,265.2,58.2,259.4"/>
		<path id="path28" class="st0" d="M527.5,278c41.1,3.9,27.7-40.5,9.6-50.4c-8.4-4.6-17.1-3.3-27.7-3.4L527.5,278z M489.5,210.8
			c12.9-0.4,40.6-1.8,50.6,2.5c29.3,12.4,37.8,54.9,23.1,70.7c-9.6,10.4-33,7.5-47.1,7.7L489.5,210.8"/>
		<path id="path30" class="st0" d="M608.6,204.8c10.3,3.1,22.7-7.8,8.3-10.7C603.4,191.4,592.8,200,608.6,204.8z M625,253.2
			c12.2,4.1,7.6-15.2,1-18c-6.3-2.7-9.8,0.6-8.5,7.5C618.5,248.3,620.5,251.7,625,253.2z M609.3,228.5c-5.1-1.3-8.6-3.1-10.3-7.1
			c-2.6-5.9-0.4-9.6,3.3-12.7c-13.5-5.1-17.8-14.4-11.6-20.6c9.8-9.9,53.4-5.5,46.1,20.1c-3.4,12-21.4,7.2-24.5,13.2
			c3,6.9,9.8-1.5,24.2,8c6.5,4.3,9.5,12.2,9.5,23.3l7.7,0.1l3.3,11.6c-18.3,2.4-44.9,2.7-51.4-17.1c-1.1-3.4-1.6-7.2-0.8-11
			c0.4-1.8,0.8-2.6,1.7-3.9L609.3,228.5"/>
		<path id="path32" class="st0" d="M954.3,223.3c-22.2-4.8-18.2,29.2,9.6,28C962.5,246.1,956.7,226.7,954.3,223.3z M968.7,265.4
			c-20.3-1.3-36.6-4.2-42.6-27.9c-7.1-27.9,17.5-29.7,39.1-26.1l26.5,80.3l-14.3,0.1L968.7,265.4"/>
		<path id="path34" class="st0" d="M758.5,252c-1.8-7-4.5-14.1-6.7-21.1c-1.7-5.3-1.8-5.5-6.4-7.6c-16.5-7.2-12.7,11.7-6.2,20.1
			C743.5,249.1,747.8,252.8,758.5,252z M745.5,214.8c0.1-0.1,0.3-0.5,0.3-1.4c0-0.6-0.2-1.7-0.2-2.8l13.4,0l17.9,53.2
			c-12.5,1.9-22,2.9-33.5-1.5C709.8,249.7,710.5,192.1,745.5,214.8"/>
		<path id="path36" class="st0" d="M1049.8,252.1c-1.4-6.7-4.6-14.5-6.7-21.2c-3.2-10.4-14-10.2-16.4-7.6
			C1021.8,228.7,1027.9,253.5,1049.8,252.1z M1036.9,214.8l0.2-4.2l13.3,0l17.9,52.9c-23.4,6.6-44.1-3-52.5-17.4
			C1003.8,225.6,1011.6,197.7,1036.9,214.8"/>
		<path id="path38" class="st0" d="M861.6,210.8l14.1-0.1l9.2,27.2c0.4,1.1,0.7,2.1,0.9,2.9c1.3,4.5,0.9,4.7,5.6,8.1
			c12.6,9.1,14.5,3.5,11.6-5.8l-9.9-32.5l13.3,0l11.7,34.5c0.4,1.3,0.7,2.4,0.8,3.2c1.6,7.6,0.8,15.5-6.5,17
			c-8.3,1.6-15.1-3-20.5-6.1l1.4,5.2l-14,0.2L861.6,210.8"/>
		<path id="path40" class="st0" d="M696.2,264.8l-9.7-0.1l-4.3-11.8l9.4-0.1c-1.6-8.6-27.4-54.9,15.9-39.8l2.7,13.9
			c-2.2-0.7-6.3-2.8-8.3-2.6c-9.5,0.8,2.3,23.2,4.1,28.3l11,0.2l3.8,11.8l-10.2,0.1l3.9,11.1l-14.4,0.3L696.2,264.8"/>
		<path id="path42" class="st0" d="M831.2,210.9l15-0.3l27.1,81l-15.3,0L831.2,210.9"/>
		<path id="path44" class="st0" d="M772.8,210.9l14-0.3l27,81.1l-14.3,0L772.8,210.9"/>
		<path id="path46" class="st0" d="M568.2,210.3h14.3l17.2,54.6h-14.3L568.2,210.3z M599.6,287.2c3.9,0,6.3-3.7,5.3-8.3
			c-1-4.6-5.1-8.3-9-8.3c-3.9,0-6.3,3.7-5.3,8.3C591.6,283.4,595.6,287.2,599.6,287.2"/>
		<path id="path48" class="st0" d="M647.1,210.3h14.3l17.2,54.6h-14.3L647.1,210.3z M678.5,287.2c4,0,6.3-3.7,5.3-8.3
			c-1-4.6-5.1-8.3-9-8.3c-4,0-6.3,3.7-5.3,8.3C670.5,283.4,674.6,287.2,678.5,287.2"/>
		<path id="path50" class="st0" d="M977.2,210.3h14.3l17.2,54.6h-14.3L977.2,210.3z M1008.7,287.2c4,0,6.3-3.7,5.3-8.3
			c-1-4.6-5.1-8.3-9-8.3c-3.9,0-6.3,3.7-5.3,8.3C1000.7,283.4,1004.7,287.2,1008.7,287.2"/>
		<path id="path52" class="st0" d="M1062.2,202.3H646.6v-5.4h415.6L1062.2,202.3"/>
		<path id="path54" class="st0" d="M571.6,202.3h-84.8v-5.4h84.8V202.3"/>
	</g>
</g>
</svg>
