<?xml version="1.0" encoding="UTF-8"?><svg xmlns="http://www.w3.org/2000/svg" xmlns:xlink="http://www.w3.org/1999/xlink" viewBox="0 0 152 145.5"><defs><style>.cls-1,.cls-2,.cls-3{fill:none;}.cls-4{fill:#0081c6;}.cls-2{stroke:#5f6469;}.cls-2,.cls-3{stroke-miterlimit:10;stroke-width:.79px;}.cls-5{fill:#666c71;}.cls-6{fill:#fbab18;}.cls-7{clip-path:url(#clippath-1);}.cls-8{fill:#606469;}.cls-3{stroke:#666c71;}.cls-9{fill:#fff;}.cls-10{fill:#00ae57;}.cls-11{fill:#f04931;}.cls-12{clip-path:url(#clippath);}</style><clipPath id="clippath"><rect class="cls-1" x="4.4" y="4.4" width="143.3" height="136.7"/></clipPath><clipPath id="clippath-1"><rect class="cls-1" x="4.4" y="4.4" width="143.3" height="136.7"/></clipPath></defs><g id="a"><path class="cls-9" d="M144.1,140.7H8c-1.7,0-3.2-1.4-3.2-3.2V7.9c0-1.7,1.4-3.2,3.2-3.2h136.1c1.7,0,3.2,1.4,3.2,3.2v129.6c-.1,1.7-1.5,3.2-3.2,3.2h0Z"/><g class="cls-12"><path class="cls-2" d="M144.1,140.7H8c-1.7,0-3.2-1.4-3.2-3.2V7.9c0-1.7,1.4-3.2,3.2-3.2h136.1c1.7,0,3.2,1.4,3.2,3.2v129.6c-.1,1.7-1.5,3.2-3.2,3.2h0Z"/><path class="cls-9" d="M144.1,140.7H7.9c-1.7,0-3.2-1.4-3.2-3.2V7.9c0-1.7,1.4-3.2,3.2-3.2h136.2c1.7,0,3.2,1.4,3.2,3.2v129.6c-.1,1.7-1.5,3.2-3.2,3.2h0Z"/><path class="cls-5" d="M4.8,112.9v22.9c0,3.5,1.2,4.9,4.9,4.9h132.7c3.9,0,5.7,0,4.9-4.9v-22.9H4.8Z"/></g><g class="cls-7"><path class="cls-3" d="M144.1,140.7H7.9c-1.7,0-3.2-1.4-3.2-3.2V7.9c0-1.7,1.4-3.2,3.2-3.2h136.2c1.7,0,3.2,1.4,3.2,3.2v129.6c-.1,1.7-1.5,3.2-3.2,3.2h0Z"/></g><path class="cls-8" d="M30.3,91.5c-.8-.5-1.5-1.1-1.9-1.9s-.7-1.7-.7-2.7.2-1.9.7-2.7,1.1-1.5,1.9-1.9,1.7-.7,2.7-.7c.8,0,1.5.1,2.1.4.7.3,1.2.6,1.6,1.1l-.9.9c-.3-.4-.7-.7-1.2-.9-.5-.2-1-.3-1.6-.3-.7,0-1.4.2-2,.5s-1.1.8-1.5,1.5c-.4.6-.6,1.4-.6,2.2s.2,1.6.6,2.2.9,1.1,1.5,1.5c.6.3,1.3.5,2,.5s1.3-.1,1.7-.3c.5-.2.9-.5,1.2-.8.2-.3.5-.6.6-1,.2-.4.2-.8.3-1.2h-3.8v-1.1h4.9c0,.3.1.5.1.7,0,.6-.1,1.2-.3,1.8s-.5,1.1-1,1.6c-.9,1-2.2,1.5-3.8,1.5-.9-.2-1.8-.4-2.6-.9h0ZM32.9,92.3c-1,0-1.9-.2-2.7-.7h0c-.8-.5-1.5-1.1-2-2-.5-.8-.7-1.8-.7-2.8s.2-1.9.7-2.8c.5-.8,1.1-1.5,2-2s1.7-.7,2.7-.7c.8,0,1.5.1,2.2.4s1.2.7,1.7,1.2l.1.1-1,1.1-.2-.1c-.3-.4-.7-.7-1.2-.9s-1-.3-1.6-.3c-.7,0-1.4.2-2,.5s-1.1.8-1.5,1.4-.5,1.3-.5,2.1.2,1.5.5,2.1c.4.6.9,1.1,1.5,1.4s1.3.5,2,.5,1.2-.1,1.7-.3c.5-.2.8-.5,1.2-.8.2-.2.4-.6.6-.9.1-.3.2-.7.3-1.1h-3.8v-1.4h5.1v.1c0,.3.1.5.1.8,0,.6-.1,1.3-.3,1.9s-.5,1.2-1,1.6c-1,1.1-2.3,1.6-3.9,1.6h0ZM32.9,81.6c-.9,0-1.8.2-2.6.7-.8.5-1.4,1.1-1.9,1.9s-.7,1.7-.7,2.7.2,1.9.7,2.7c.5.8,1.1,1.4,1.9,1.9h0c.8.4,1.7.7,2.6.7,1.5,0,2.8-.5,3.7-1.5.4-.4.7-.9.9-1.5s.3-1.2.3-1.8v-.6h-4.7v.9h3.8v.1c0,.5-.2.9-.3,1.3s-.4.7-.6,1c-.3.4-.8.7-1.2.9-.5.2-1.1.3-1.8.3s-1.4-.2-2.1-.5-1.2-.9-1.6-1.5c-.4-.7-.6-1.4-.6-2.3s.2-1.6.6-2.3c.4-.7.9-1.2,1.5-1.5.6-.4,1.3-.5,2.1-.5.6,0,1.2.1,1.7.3.5.2.9.5,1.2.8l.7-.7c-.4-.4-.9-.8-1.5-1-.6-.4-1.3-.5-2.1-.5h0ZM41,91.7c-.6-.3-1-.8-1.3-1.4s-.5-1.2-.5-2,.2-1.4.5-2,.8-1.1,1.3-1.4c.6-.3,1.2-.5,1.9-.5s1.4.2,1.9.5c.6.3,1,.8,1.3,1.4s.5,1.2.5,2-.2,1.4-.5,2-.8,1.1-1.3,1.4c-.6.3-1.2.5-1.9.5s-1.4-.2-1.9-.5ZM44.1,90.8c.4-.2.7-.6.9-1s.3-.9.3-1.5-.1-1.1-.3-1.5-.5-.7-.9-1-.8-.3-1.2-.3-.9.1-1.3.3c-.4.2-.7.6-.9,1s-.3.9-.3,1.5.1,1.1.3,1.5.5.7.9,1c.4.2.8.3,1.3.3s.9-.1,1.2-.3ZM42.9,92.3c-.7,0-1.4-.2-2-.5s-1-.8-1.4-1.4-.5-1.3-.5-2,.2-1.4.5-2,.8-1.1,1.4-1.4c.6-.3,1.3-.5,2-.5s1.4.2,2,.5,1,.8,1.4,1.4.5,1.3.5,2-.2,1.4-.5,2-.8,1.1-1.4,1.4-1.3.5-2,.5ZM42.9,84.6c-.7,0-1.3.2-1.9.5s-1,.8-1.3,1.3c-.3.6-.5,1.2-.5,1.9s.2,1.3.5,1.9.7,1,1.3,1.3h0c.5.3,1.2.5,1.9.5s1.3-.2,1.9-.5,1-.8,1.3-1.3.5-1.2.5-1.9-.3-1.3-.6-1.9-.7-1-1.3-1.3-1.1-.5-1.8-.5ZM42.9,91.2c-.5,0-.9-.1-1.3-.3-.4-.2-.7-.6-1-1-.2-.4-.4-.9-.4-1.5s.1-1.1.4-1.5c.2-.4.6-.8,1-1,.8-.5,1.8-.5,2.6,0,.4.2.7.6,1,1,.2.4.4.9.4,1.5s-.1,1.1-.4,1.5c-.2.4-.6.8-1,1h0c-.4.2-.8.3-1.3.3ZM42.9,85.7c-.4,0-.8.1-1.2.3s-.7.5-.9.9-.3.9-.3,1.4.1,1,.3,1.4.5.7.9.9c.7.4,1.7.4,2.4,0h0c.4-.2.7-.5.9-.9s.3-.9.3-1.4-.1-1-.3-1.4-.5-.7-.9-.9-.8-.3-1.2-.3h0ZM49.5,91.7c-.6-.3-1-.8-1.3-1.4s-.5-1.2-.5-2,.2-1.4.5-2,.8-1.1,1.3-1.4c.6-.3,1.2-.5,1.9-.5s1.4.2,1.9.5c.6.3,1,.8,1.3,1.4s.5,1.2.5,2-.2,1.4-.5,2-.8,1.1-1.3,1.4c-.6.3-1.2.5-1.9.5s-1.4-.2-1.9-.5ZM52.7,90.8c.4-.2.7-.6.9-1s.3-.9.3-1.5-.1-1.1-.3-1.5-.5-.7-.9-1-.8-.3-1.2-.3-.9.1-1.3.3c-.4.2-.7.6-.9,1s-.3.9-.3,1.5.1,1.1.3,1.5.5.7.9,1c.4.2.8.3,1.3.3s.8-.1,1.2-.3ZM51.4,92.3c-.7,0-1.4-.2-2-.5s-1-.8-1.4-1.4-.5-1.3-.5-2,.2-1.4.5-2,.8-1.1,1.4-1.4c.6-.3,1.3-.5,2-.5s1.4.2,2,.5,1,.8,1.4,1.4.5,1.3.5,2-.2,1.4-.5,2-.8,1.1-1.4,1.4-1.3.5-2,.5ZM51.4,84.6c-.7,0-1.3.2-1.9.5s-1,.8-1.3,1.3c-.3.6-.5,1.2-.5,1.9s.2,1.3.5,1.9.7,1,1.3,1.3h0c.5.3,1.2.5,1.9.5s1.3-.2,1.9-.5,1-.8,1.3-1.3.4-1.2.4-1.9-.2-1.3-.5-1.9-.7-1-1.3-1.3-1.1-.5-1.8-.5ZM51.4,91.2c-.5,0-.9-.1-1.3-.3-.4-.2-.7-.6-1-1-.2-.4-.4-.9-.4-1.5s.1-1.1.4-1.5c.2-.4.6-.8,1-1,.8-.5,1.8-.5,2.6,0,.4.2.7.6,1,1,.2.4.4.9.4,1.5s-.1,1.1-.4,1.5c-.2.4-.6.8-1,1h0c-.4.2-.8.3-1.3.3ZM51.4,85.7c-.4,0-.8.1-1.2.3s-.7.5-.9.9-.3.9-.3,1.4.1,1,.3,1.4.5.7.9.9c.7.4,1.7.4,2.4,0h0c.4-.2.7-.5.9-.9s.3-.9.3-1.4-.1-1-.3-1.4-.5-.7-.9-.9-.8-.3-1.2-.3h0ZM57.6,94.7c-.6-.4-.9-.9-1.1-1.4l1.1-.5c.2.4.4.8.8,1,.4.3.8.4,1.3.4.8,0,1.3-.2,1.8-.6s.6-1,.6-1.8v-.8h-.1c-.2.4-.6.7-1,.9-.4.2-.9.3-1.5.3s-1.2-.2-1.7-.5-.9-.8-1.2-1.4-.5-1.3-.5-2,.2-1.4.5-2,.7-1.1,1.2-1.4,1.1-.5,1.7-.5c.5,0,1,.1,1.5.3.4.2.8.5,1,.9h.1v-1h1.2v7c0,1.2-.3,2.1-1,2.7s-1.5.9-2.6.9c-.8.1-1.5-.1-2.1-.5h0ZM61,90.8c.4-.2.6-.5.9-1,.2-.4.3-.9.3-1.5s-.1-1.1-.3-1.5-.5-.7-.9-.9-.8-.3-1.2-.3-.8.1-1.2.3-.7.5-.9,1c-.2.4-.3.9-.3,1.5s.1,1.1.3,1.5.5.7.9,1,.8.3,1.2.3.8-.2,1.2-.4ZM59.8,95.4c-.9,0-1.6-.2-2.2-.6s-1-.9-1.2-1.5v-.1l1.3-.6v.1c.2.4.4.7.8,1,.3.2.8.4,1.3.4.7,0,1.3-.2,1.7-.6s.6-1,.6-1.7v-.5c-.2.3-.5.5-.9.7-.5.2-1,.4-1.5.4-.7,0-1.2-.2-1.8-.5s-1-.8-1.3-1.4-.5-1.3-.5-2.1.2-1.4.5-2.1.8-1.1,1.3-1.4,1.1-.5,1.8-.5c.6,0,1.1.1,1.5.4.3.2.7.4.9.7v-.9h1.4v7.1c0,1.2-.3,2.1-1,2.8-.8.6-1.6.9-2.7.9h0ZM56.7,93.3c.2.5.5.9,1,1.3s1.2.6,2,.6c1,0,1.8-.3,2.5-.9.6-.6.9-1.5.9-2.6v-6.9h-.9v1h-.2v-.1c-.2-.4-.5-.7-1-.9-.4-.2-.9-.3-1.4-.3-.6,0-1.2.2-1.7.5s-.9.8-1.2,1.3c-.3.6-.4,1.2-.4,1.9s.2,1.4.4,1.9c.3.6.7,1,1.2,1.3s1,.5,1.7.5c.5,0,1-.1,1.4-.3s.7-.5,1-.9v-.1h.2v.9c0,.8-.2,1.4-.7,1.9s-1.1.7-1.8.7c-.5,0-1-.1-1.4-.4-.4-.2-.6-.6-.8-1l-.8.6h0ZM59.8,91.2c-.5,0-.9-.1-1.3-.3-.4-.2-.7-.6-.9-1s-.3-1-.3-1.6.1-1.1.3-1.5.5-.8.9-1,.8-.3,1.3-.3.9.1,1.3.3c.4.2.7.6.9,1s.3,1,.3,1.6-.1,1.1-.3,1.5-.5.8-.9,1c-.5.2-.9.3-1.3.3h0ZM59.8,85.7c-.4,0-.8.1-1.1.3-.3.2-.6.5-.8.9s-.3.9-.3,1.4.1,1,.3,1.4.5.7.8.9c.3.2.7.3,1.1.3s.8-.1,1.1-.3.6-.5.8-.9.3-.9.3-1.4-.1-1-.3-1.4-.5-.7-.8-.9c-.3-.2-.7-.3-1.1-.3ZM65.1,81.8h1.2v10.2h-1.2v-10.2ZM66.4,92.1h-1.5v-10.5h1.5v10.5ZM65.2,91.9h1v-10h-1v10ZM69.5,91.7c-.6-.3-1-.8-1.3-1.4s-.5-1.2-.5-2,.2-1.3.4-1.9c.3-.6.7-1.1,1.2-1.4s1.2-.5,1.9-.5,1.3.2,1.9.5c.5.3.9.8,1.2,1.3s.4,1.2.4,1.9v.4h-5.8c0,.6.2,1,.4,1.4.2.4.5.7.9.9s.8.3,1.2.3c.9,0,1.7-.4,2.2-1.3l1,.5c-.3.6-.7,1.1-1.3,1.4-.5.3-1.2.5-1.9.5-.7-.1-1.4-.3-1.9-.6h0ZM73.4,87.6c0-.3-.1-.6-.3-.9-.2-.3-.4-.6-.7-.8s-.7-.3-1.2-.3c-.6,0-1.1.2-1.4.6-.4.4-.7.8-.8,1.4,0,0,4.4,0,4.4,0ZM71.3,92.3c-.7,0-1.4-.2-1.9-.5h0c-.6-.3-1-.8-1.3-1.4s-.5-1.3-.5-2,.2-1.4.4-2c.3-.6.7-1.1,1.3-1.5.6-.4,1.2-.6,1.9-.6s1.4.2,1.9.5,1,.8,1.2,1.4.4,1.2.4,2c0,.2,0,.3-.1.4v.1h-5.6c0,.5.2.9.4,1.2.2.4.5.6.9.8s.7.3,1.1.3c.9,0,1.6-.4,2.1-1.2l.1-.1,1.2.6-.1.1c-.3.6-.8,1.1-1.3,1.4-.6.3-1.3.5-2.1.5h0ZM69.5,91.6c.5.3,1.1.5,1.8.5s1.4-.2,1.9-.5.9-.7,1.2-1.2l-.8-.4c-.5.8-1.3,1.3-2.2,1.3-.4,0-.8-.1-1.2-.3-.4-.2-.7-.5-1-.9s-.4-.9-.4-1.5v-.1h5.8v-.2c0-.7-.1-1.3-.4-1.9-.3-.5-.7-1-1.2-1.3s-1.1-.5-1.8-.5-1.3.2-1.8.5-.9.8-1.2,1.4-.4,1.2-.4,1.9.2,1.4.4,1.9c.4.5.8,1,1.3,1.3h0ZM73.6,87.7h-4.7v-.2c.1-.6.4-1.1.8-1.5s.9-.6,1.5-.6c.5,0,1,.1,1.3.3.3.2.6.5.8.8.2.3.2.6.3,1v.2h0ZM69.2,87.4h4.2c0-.2-.1-.5-.2-.7-.1-.3-.4-.5-.7-.7s-.7-.3-1.2-.3-1,.2-1.4.5-.6.7-.7,1.2h0ZM79.1,81.7h3.4c.6,0,1.1.1,1.6.4s.9.6,1.2,1.1c.3.5.4,1,.4,1.6s-.2,1.1-.4,1.6c-.3.5-.7.8-1.2,1.1s-1,.4-1.6.4h-2.2v4.1h-1.2v-10.3h0ZM82.6,86.6c.4,0,.7-.1,1-.3s.5-.4.7-.7.2-.6.2-.9-.1-.6-.2-.9-.4-.5-.7-.7-.6-.3-1-.3h-2.3v3.8h2.3ZM80.5,92.1h-1.5v-10.5h3.6c.6,0,1.1.1,1.7.4.5.3.9.7,1.2,1.1.3.5.5,1,.5,1.6s-.2,1.2-.5,1.6c-.3.5-.7.9-1.2,1.1-.5.3-1.1.4-1.7.4h-2.1v4.3h0ZM79.3,91.8h.9v-4.2h2.4c.6,0,1.1-.1,1.5-.4.5-.2.8-.6,1.1-1,.3-.4.4-.9.4-1.5s-.1-1.1-.4-1.5-.7-.8-1.1-1-1-.4-1.5-.4h-3.3v10h0ZM82.6,86.8h-2.4v-4h2.4c.4,0,.8.1,1.1.3s.6.4.7.8c.2.3.3.6.3,1s-.1.7-.3,1c-.2.3-.4.6-.7.8-.3,0-.7.1-1.1.1ZM80.5,86.5h2.2c.4,0,.7-.1.9-.2.3-.2.5-.4.6-.7.2-.3.2-.6.2-.8s-.1-.6-.2-.8-.4-.5-.6-.7c-.3-.2-.6-.3-1-.3h-2.2v3.5h.1ZM88.2,91.9c-.4-.2-.7-.5-1-.9s-.3-.8-.3-1.2c0-.8.3-1.4.9-1.8s1.3-.7,2.2-.7c.4,0,.8.1,1.2.1.4.1.7.2.9.3v-.4c0-.5-.2-1-.6-1.3s-.9-.5-1.4-.5c-.4,0-.8.1-1.1.3-.3.2-.6.4-.8.7l-.9-.7c.3-.4.7-.8,1.2-1s1.1-.4,1.7-.4c1,0,1.8.3,2.3.8s.8,1.2.8,2.1v4.7h-1.2v-1h-.1c-.2.3-.5.7-.9.9-.4.2-.9.4-1.4.4s-1-.2-1.5-.4h0ZM90.9,90.8c.3-.2.6-.5.8-.8s.3-.7.3-1.2c-.2-.2-.5-.3-.8-.4s-.7-.1-1.1-.1c-.7,0-1.2.1-1.5.4s-.5.6-.5,1.1c0,.4.2.7.5,1s.7.4,1.2.4c.4-.1.8-.2,1.1-.4h0ZM89.7,92.3c-.6,0-1.1-.1-1.5-.3h0c-.4-.2-.8-.5-1-.9s-.4-.8-.4-1.3c0-.8.3-1.4.9-1.9.6-.4,1.4-.7,2.3-.7.4,0,.9.1,1.2.2.3.1.5.2.7.2v-.2c0-.5-.2-.9-.5-1.2-.4-.3-.8-.5-1.4-.5-.4,0-.8.1-1.1.2-.3.2-.6.4-.8.7l-.1.1-1-.8.1-.1c.3-.5.7-.8,1.2-1.1.5-.2,1.1-.4,1.7-.4,1,0,1.8.3,2.4.8s.9,1.3.9,2.2v4.7h-1.4v-.8c-.2.3-.5.5-.8.7-.4.3-.9.4-1.4.4h0ZM90,87.4c-.9,0-1.6.2-2.1.6-.6.4-.8,1-.8,1.7,0,.4.1.8.3,1.2.2.3.5.6.9.8h0c.4.2.9.3,1.4.3s.9-.1,1.3-.3c.4-.2.7-.5.9-.9v-.1h.2v1h.9v-4.5c0-.8-.3-1.5-.8-2s-1.3-.8-2.2-.8c-.6,0-1.1.1-1.6.4-.4.2-.8.5-1.1.9l.7.5c.2-.3.5-.5.8-.7.4-.2.8-.3,1.2-.3.6,0,1.1.2,1.5.5s.6.8.6,1.4v.9l-.1-.1c-.2-.1-.5-.2-.8-.3-.4-.1-.8-.2-1.2-.2h0ZM89.8,91.3c-.5,0-.9-.1-1.2-.4-.3-.3-.5-.6-.5-1.1s.2-.9.6-1.2c.4-.3.9-.4,1.6-.4.4,0,.8.1,1.1.2.3.1.6.2.9.4h.1v.1c0,.4-.1.8-.3,1.2s-.5.7-.9.9h0c-.6.2-1,.3-1.4.3h0ZM90.2,88.4c-.6,0-1.1.1-1.4.4-.3.2-.5.6-.5,1s.1.7.4.9c.3.2.6.3,1.1.3.4,0,.8-.1,1.1-.3.3-.2.6-.5.8-.8.2-.3.3-.7.3-1-.2-.1-.5-.2-.8-.3-.3-.1-.7-.2-1-.2h0ZM94.7,84.8h1.2v1.2h.1c.2-.4.5-.8.9-1s.9-.4,1.3-.4h.5v1.2c-.2,0-.4-.1-.7-.1-.6,0-1.1.2-1.5.6s-.6.9-.6,1.6v4.1h-1.2v-7.2h0ZM102.1,92.1c-.2-.1-.5-.2-.6-.4-.2-.2-.3-.4-.4-.6s-.1-.5-.1-.9v-4.3h-1.3v-1.1h1.3v-2.1h1.2v2.1h1.8v1.1h-1.8v4.1c0,.4.1.7.2.9.2.2.4.3.8.3.3,0,.5-.1.8-.2v1c-.1.1-.3.1-.4.1h-.6c-.4.1-.6.1-.9,0ZM102.9,92.3c-.3,0-.6-.1-.9-.2s-.5-.2-.7-.4c-.2-.2-.4-.4-.5-.7s-.2-.6-.2-.9v-4.2h-1.3v-1.3h1.3v-2.1h1.5v2.1h1.8v1.3h-1.8v3.9c0,.4.1.7.2.8.2.2.4.3.7.3.2,0,.5-.1.7-.2l.2-.1v1.5h-.1c-.2.1-.3.1-.5.2.1,0-.1,0-.4,0h0ZM99.8,85.7h1.3v4.5c0,.3,0,.6.1.8s.2.4.4.6c.2.2.4.3.6.4s.5.1.8.1h.5c.1,0,.2-.1.3-.1v-.9c-.2.1-.4.2-.7.2-.4,0-.7-.1-.9-.4-.2-.2-.3-.5-.3-1v-4.2h1.8v-.8h-1.7v-2.1h-1v2.1h-1.3l.1.8h0ZM96.1,92.2h-1.5v-7.5h1.4v.9c.2-.3.4-.5.7-.7.4-.2.9-.4,1.4-.4h.7v1.5h-.2c-.2,0-.4-.1-.6-.1-.6,0-1.1.2-1.4.6-.4.4-.5.9-.5,1.5v4.2ZM94.8,92h1v-3.9c0-.7.2-1.2.6-1.7.4-.4.9-.7,1.6-.7h.5v-1h-.4c-.5,0-.9.1-1.3.3-.4.2-.7.5-.8.9v.1h-.3v-1.2h-.9v7.2h0ZM105.3,84.7h1.2v1.1h.1c.2-.4.5-.7,1-.9s.9-.4,1.4-.4c.9,0,1.6.2,2,.8s.7,1.2.7,2.1v4.6h-1.2v-4.5c0-.7-.2-1.2-.5-1.5s-.8-.5-1.3-.5c-.4,0-.7.1-1.1.3-.3.2-.6.5-.7.9s-.3.7-.3,1.1v4.2h-1.2l-.1-7.3h0ZM111.7,92.1h-1.5v-4.6c0-.6-.2-1.1-.4-1.4-.3-.3-.7-.4-1.2-.4-.4,0-.7.1-1,.3s-.5.5-.7.8-.2.7-.2,1.1v4.2h-1.5v-7.5h1.4v.9c.2-.3.5-.5.8-.7.5-.3.9-.4,1.5-.4.9,0,1.6.3,2.1.8s.7,1.3.7,2.2v4.7h0ZM110.5,91.9h1v-4.6c0-.8-.2-1.5-.7-2-.4-.5-1.1-.7-1.9-.7-.5,0-.9.1-1.3.4s-.7.5-.9.9v.1h-.3v-1.1h-.9v7h1v-4c0-.4.1-.8.3-1.2.2-.4.4-.7.8-.9s.7-.3,1.1-.3c.6,0,1.1.2,1.4.5s.5.8.5,1.6l-.1,4.3h0ZM114.7,91.7c-.6-.3-1-.8-1.3-1.4s-.5-1.2-.5-2,.2-1.3.4-1.9c.3-.6.7-1.1,1.2-1.4s1.2-.5,1.9-.5,1.3.2,1.9.5.9.8,1.2,1.3.4,1.2.4,1.9v.4h-5.8c0,.6.2,1,.4,1.4.2.4.5.7.9.9s.8.3,1.2.3c.9,0,1.7-.4,2.2-1.3l1,.5c-.3.6-.7,1.1-1.3,1.4-.5.3-1.2.5-1.9.5-.7-.1-1.3-.3-1.9-.6h0ZM118.7,87.6c0-.3-.1-.6-.3-.9-.2-.3-.4-.6-.7-.8s-.7-.3-1.2-.3c-.6,0-1.1.2-1.4.6-.4.4-.7.8-.8,1.4-.1,0,4.4,0,4.4,0ZM116.6,92.3c-.7,0-1.4-.2-1.9-.5h0c-.6-.3-1-.8-1.3-1.4s-.5-1.3-.5-2,.2-1.4.4-2c.3-.6.7-1.1,1.3-1.5.6-.4,1.2-.6,1.9-.6s1.4.2,1.9.5,1,.8,1.2,1.4.4,1.2.4,2c0,.2,0,.3-.1.4v.1h-5.7c0,.5.2.9.4,1.2.2.4.5.6.9.8s.7.3,1.1.3c.9,0,1.6-.4,2.1-1.2l.1-.1,1.2.6-.1.1c-.3.6-.8,1.1-1.3,1.4-.6.3-1.3.5-2,.5h0ZM114.7,91.6c.5.3,1.1.5,1.8.5s1.4-.2,1.9-.5.9-.7,1.2-1.2l-.8-.4c-.5.8-1.3,1.3-2.2,1.3-.4,0-.8-.1-1.2-.3-.4-.2-.7-.5-1-.9s-.4-.9-.4-1.5v-.1h5.8v-.2c0-.7-.1-1.3-.4-1.9-.3-.5-.7-1-1.2-1.3s-1.1-.5-1.8-.5-1.3.2-1.8.5-.9.8-1.2,1.4c-.3.6-.4,1.2-.4,1.9s.2,1.4.4,1.9c.4.5.8,1,1.3,1.3h0ZM118.8,87.7h-4.7v-.2c.1-.6.4-1.1.8-1.5s.9-.6,1.5-.6c.5,0,1,.1,1.3.3.3.2.6.5.8.8.2.3.2.6.3,1v.2h0ZM114.4,87.4h4.2c0-.2-.1-.5-.2-.7-.1-.3-.4-.5-.7-.7-.3-.2-.7-.3-1.2-.3s-1,.2-1.4.5-.6.7-.7,1.2h0ZM121.3,84.7h1.2v1.2h.1c.1-.4.4-.7.8-1s.8-.4,1.3-.4c.3,0,.6.1.9.2v1.3c-.3-.2-.7-.2-1-.2s-.7.1-1,.3c-.3.2-.5.5-.7.8s-.3.7-.3,1.1v4h-1.2l-.1-7.3h0ZM122.7,92.1h-1.5v-7.5h1.4v.9c.2-.3.4-.5.7-.7.4-.3.9-.4,1.4-.4.3,0,.7.1.9.2h.1v1.6l-.2-.1c-.3-.1-.6-.2-1-.2-.3,0-.6.1-.9.3-.3.2-.5.4-.7.8-.2.3-.2.7-.2,1v4.1h0ZM121.5,91.8h1v-4c0-.4.1-.8.3-1.2.2-.4.4-.6.8-.9.3-.2.7-.3,1-.3s.6.1.9.2v-1c-.2-.1-.4-.1-.7-.1-.4,0-.8.1-1.2.4-.4.2-.7.6-.8.9v.1h-.3v-1.2h-.9l-.1,7.1h0Z"/><path class="cls-4" d="M97.1,48c0-1.5-.2-3-.5-4.4h-20.1v8.4h11.3c-.5,2.7-1.8,5-4.1,6.5v5.4h7c4.1-3.7,6.4-9.3,6.4-15.9h0Z"/><path class="cls-10" d="M76.4,69.2c5.8,0,10.7-1.9,14.3-5.2l-7-5.4c-1.9,1.3-4.4,2.1-7.3,2.1-5.6,0-10.4-3.8-12.1-8.9h-7.2v5.6c3.6,6.9,10.9,11.8,19.3,11.8h0Z"/><path class="cls-6" d="M64.4,51.7c-.4-1.3-.7-2.7-.7-4.1s.2-2.8.7-4.1v-5.6h-7.2c-1.5,2.9-2.3,6.2-2.3,9.7s.8,6.8,2.3,9.7l7.2-5.6h0Z"/><path class="cls-11" d="M76.4,34.5c3.2,0,6,1.1,8.2,3.2l6.2-6.2c-3.7-3.5-8.6-5.6-14.4-5.6-8.4,0-15.7,4.8-19.2,11.9l7.2,5.6c1.7-5.1,6.4-8.9,12-8.9h0Z"/></g><g id="_x32_025"><g id="Text_x5F_OL"><path class="cls-9" d="M39.31,122.26h2.91c.49,0,.95.11,1.36.33.42.22.75.52,1,.91s.37.83.37,1.32-.12.93-.37,1.32-.58.7-1,.91c-.42.22-.87.33-1.36.33h-1.59v3.26h-1.31v-8.39h0ZM42.24,126.14c.29,0,.54-.06.75-.19s.37-.29.48-.5.16-.41.16-.63-.05-.43-.16-.63-.27-.37-.48-.49-.46-.19-.75-.19h-1.62v2.64h1.62Z"/><path class="cls-9" d="M45.99,122.26h2.95c.5,0,.96.11,1.37.33s.74.52.98.91.36.83.36,1.32c0,.56-.18,1.06-.54,1.5s-.82.73-1.36.88v.06l2.28,3.32v.07h-1.52l-2.21-3.28h-.98v3.28h-1.31v-8.39h-.02ZM48.9,126.14c.39,0,.72-.12,1-.38.27-.25.41-.57.41-.96,0-.22-.05-.43-.16-.63s-.27-.37-.47-.5-.45-.19-.73-.19h-1.65v2.66s1.6,0,1.6,0Z"/><path class="cls-9" d="M52.86,122.26h5.1v1.25h-3.78v2.32h3.41v1.24h-3.41v2.32h3.78v1.25h-5.1v-8.39h0Z"/><path class="cls-9" d="M59.29,122.26h1.78l2.41,6.36h.07l2.41-6.36h1.78v8.39h-1.3v-4.7l.07-1.51h-.07l-2.4,6.21h-1.05l-2.4-6.21h-.07l.07,1.51v4.7h-1.3s0-8.39,0-8.39Z"/><path class="cls-9" d="M69.38,122.26h1.31v8.39h-1.31v-8.39Z"/><path class="cls-9" d="M72.31,122.26h5.1v1.25h-3.78v2.32h3.41v1.24h-3.41v2.32h3.78v1.25h-5.1v-8.39h0Z"/><path class="cls-9" d="M78.74,122.26h2.95c.5,0,.96.11,1.37.33s.74.52.98.91.36.83.36,1.32c0,.56-.18,1.06-.54,1.5s-.82.73-1.36.88v.06l2.28,3.32v.07h-1.52l-2.21-3.28h-.98v3.28h-1.31v-8.39h-.02ZM81.66,126.14c.39,0,.72-.12,1-.38.27-.25.41-.57.41-.96,0-.22-.05-.43-.16-.63s-.27-.37-.47-.5c-.2-.13-.45-.19-.73-.19h-1.65v2.66h1.61,0Z"/><path class="cls-9" d="M87.67,129.42l1.48-1.48c.73-.74,1.22-1.24,1.46-1.51.33-.35.55-.64.67-.85s.18-.48.18-.79-.12-.57-.35-.8-.55-.34-.95-.34c-.37,0-.67.11-.9.32s-.38.46-.45.74l-1.17-.48c.08-.28.22-.56.44-.83s.5-.5.86-.69.77-.28,1.24-.28c.51,0,.96.1,1.35.31s.7.49.91.84.32.75.32,1.18c0,.46-.12.9-.36,1.33s-.54.82-.91,1.19c-.16.15-.55.54-1.18,1.17l-.96.96.02.05h3.49v1.17h-5.21v-1.22h.02Z"/><path class="cls-9" d="M95.32,130.27c-.5-.37-.88-.88-1.15-1.51-.27-.64-.4-1.35-.4-2.13s.13-1.5.4-2.14.65-1.14,1.15-1.51,1.08-.55,1.73-.55,1.23.18,1.73.55.88.87,1.15,1.51.4,1.35.4,2.14-.13,1.49-.4,2.13c-.27.64-.65,1.14-1.15,1.51s-1.07.56-1.72.56-1.23-.19-1.73-.56h-.01ZM98.1,129.22c.3-.26.53-.62.69-1.07s.24-.96.24-1.52-.08-1.07-.24-1.52-.39-.81-.69-1.07-.65-.39-1.05-.39-.76.13-1.05.39-.53.61-.69,1.07-.24.96-.24,1.52.08,1.07.24,1.52.39.8.69,1.07c.3.26.65.39,1.05.39s.75-.13,1.05-.39Z"/><path class="cls-9" d="M101.08,129.42l1.48-1.48c.73-.74,1.22-1.24,1.46-1.51.33-.35.55-.64.67-.85s.18-.48.18-.79-.12-.57-.35-.8-.55-.34-.95-.34c-.37,0-.67.11-.9.32s-.38.46-.45.74l-1.17-.48c.08-.28.22-.56.44-.83s.5-.5.86-.69.77-.28,1.24-.28c.51,0,.96.1,1.35.31s.7.49.91.84.32.75.32,1.18c0,.46-.12.9-.36,1.33s-.54.82-.91,1.19c-.16.15-.55.54-1.18,1.17l-.96.96.02.05h3.49v1.17h-5.21v-1.22h.02Z"/><path class="cls-9" d="M108.74,130.59c-.38-.16-.71-.4-1-.73-.29-.32-.49-.72-.61-1.2l1.16-.46c.1.42.29.76.57,1.02.28.26.62.39,1.03.39.44,0,.8-.14,1.09-.42.29-.28.43-.63.43-1.07s-.14-.8-.43-1.08-.65-.43-1.1-.43c-.25,0-.48.05-.7.16s-.4.26-.54.46l-1.28-.56.49-4.04h4.36v1.17h-3.28l-.29,2.11h.07c.41-.31.88-.47,1.42-.47.45,0,.88.11,1.27.34.39.23.71.54.94.95s.35.87.35,1.38-.12.98-.36,1.39c-.24.41-.58.74-1,.97-.43.23-.9.35-1.44.35-.39,0-.78-.08-1.15-.24h0Z"/></g></g></svg>
